<svg xmlns="http://www.w3.org/2000/svg" xmlns:xlink="http://www.w3.org/1999/xlink" width="971" height="525" fill="none" xmlns:v="https://vecta.io/nano"><style><![CDATA[.B{stroke:#c22e4a}.C{fill:#fff}.D{stroke-width:2.5}.E{stroke-width:1.3}.F{fill:#c22e4a}.G{stroke-dasharray:5.2 2.86}]]></style><path d="M0 0h971v525H0z" class="C"/><path d="M35.056 33h302.261v47.726H35.056V33z" stroke="#000"/><path d="M344.158 221.039H624.784" class="B G"/><path d="M345.908 226.925l-10.341-5.886 10.341-6.046v11.932zm277.126 0l10.341-5.886-10.341-6.046v11.932z" class="F"/><path d="M344.158 199.562H624.784" class="B G"/><path d="M345.908 205.448l-10.341-5.886 10.341-6.045v11.931zm277.126 0l10.341-5.886-10.341-6.045v11.931z" class="F"/><path d="M344.158 210.221H624.784" class="B"/><path d="M345.908 216.266l-10.341-6.045 10.341-5.886v11.931zm277.126 0l10.341-6.045-10.341-5.886v11.931z" class="F"/><g class="C D"><path d="M545.082 194.471c.319-2.227.637-4.613.637-6.999 0-22.59-18.295-41.044-41.044-41.044-17.659 0-32.613 11.136-38.499 26.726-3.5-2.704-7.954-4.295-12.727-4.295-11.613 0-21.158 9.386-21.158 21.158v.159c-15.749 1.591-27.999 14.954-27.999 31.181 0 17.34 14 31.34 31.34 31.34h102.292c16.226 0 26.726-13.205 26.726-29.59 0-13.841-6.682-25.454-19.568-28.636z" stroke="#707070"/><path d="M335.014 112.03v217.947h-89.088V112.03h89.088z" class="B"/></g><path d="M322.287 126.348v14.318h-63.634v-14.318h63.634zm.126 21.445v14.317h-63.634v-14.317h63.634zm-.032 21.443v14.317h-63.634v-14.317h63.634zm-.03 21.444v14.318h-63.634V190.68h63.634zm-.034 21.445v14.318h-63.634v-14.318h63.634zm-4.726 46.139c2.636 0 4.772-2.136 4.772-4.772s-2.136-4.773-4.772-4.773-4.773 2.137-4.773 4.773 2.137 4.772 4.773 4.772z" class="E B"/><path d="M229.552 112.018v217.946h-89.088V112.018h89.088z" class="B C D"/><path d="M216.825 126.337v14.317h-63.634v-14.317h63.634zm.127 21.443v14.318h-63.634V147.78h63.634zm-.033 21.446v14.318h-63.634v-14.318h63.634zm-.032 21.445v14.317h-63.634v-14.317h63.634zm-.034 21.445v14.317h-63.634v-14.317h63.634zm-4.736 46.148c2.636 0 4.773-2.136 4.773-4.772s-2.137-4.773-4.773-4.773-4.772 2.137-4.772 4.773 2.137 4.772 4.772 4.772z" class="E B"/><path d="M124.088 112.01v217.946H35V112.01h89.088z" class="B C D"/><path d="M111.361 126.327v14.318H47.727v-14.318h63.634zm.127 21.445v14.318H47.854v-14.318h63.634zm-.032 21.445v14.317H47.822v-14.317h63.634zm-.032 21.444v14.318H47.79v-14.318h63.634zm-.033 21.443v14.318H47.757v-14.318h63.634zm-4.747 46.16c2.636 0 4.773-2.136 4.773-4.772s-2.137-4.773-4.773-4.773-4.773 2.137-4.773 4.773 2.137 4.772 4.773 4.772z" class="E B"/><path d="M159.619 357.374c-1.75-1.113-3.818-1.749-5.886-1.749-2.863 0-4.772 1.272-4.772 3.181 0 1.75 1.59 2.387 4.454 2.864l1.432.159c3.5.477 6.84 1.909 6.84 5.886 0 4.295-3.977 6.682-8.431 6.682-2.864 0-6.364-.955-8.591-2.864l1.909-2.704c1.432 1.272 4.137 2.386 6.682 2.386 2.704 0 4.932-1.114 4.932-3.182 0-1.591-1.591-2.386-4.773-2.863l-1.591-.159c-3.182-.478-6.204-1.909-6.204-5.887 0-4.295 3.818-6.681 8.272-6.681 3.023 0 5.568.795 7.636 2.227l-1.909 2.704zm10.023 16.545h-3.341v-21.158h3.341v21.158zm20.522-17.976h-6.841v17.976h-3.341v-17.976h-6.84v-3.182h17.022v3.182zm18.931 17.976h-15.432v-21.158h15.273v3.182h-11.773v5.727h11.454v3.181h-11.454v5.887h12.091v3.181h-.159zm20.044 0h-3.34v-16.704l-5.409 2.228v-3.341l8.59-3.659v21.476h.159zm220.015-153.517v7h-1.75v-6.363c0-2.228-1.272-3.341-3.181-3.341s-3.5 1.272-3.5 3.5v6.363h-1.75v-11.295h1.75v1.591c.442-.595 1.019-1.077 1.682-1.409a4.74 4.74 0 0 1 2.136-.5c2.704 0 4.613 1.75 4.613 4.454zm14.159 1.432v.636h-9.068c.318 2.387 1.909 3.659 3.977 3.659 1.432 0 2.545-.477 3.659-1.431l.954 1.272c-1.26 1.147-2.909 1.772-4.613 1.75-3.341 0-5.727-2.386-5.727-5.886s2.386-5.886 5.568-5.886c2.863 0 5.091 2.386 5.25 5.886zm-9.068-.795h7.318c-.159-2.069-1.591-3.5-3.5-3.5-2.227 0-3.659 1.431-3.818 3.5zm19.886-3.341h-4.932v5.727c0 1.75.954 2.545 2.227 2.545a4.29 4.29 0 0 0 2.386-.795l.796 1.272c-.796.637-1.909 1.114-3.341 1.114-2.386 0-3.818-1.273-3.818-4.136v-5.727h-2.545v-1.591h2.545v-3.659h1.75v3.659h4.932v1.591zm15.59 7.954l3.341-9.386h1.909l-4.137 11.136h-2.068l-3.34-9.386-3.341 9.386h-2.068l-4.137-11.295h1.909l3.341 9.386 3.341-9.386h2.068l3.182 9.545zm18.931-3.818c0 3.341-2.545 5.886-5.886 5.886s-5.886-2.545-5.886-5.886 2.545-5.886 5.886-5.886 5.886 2.545 5.886 5.886zm-10.181 0c0 2.386 1.749 4.295 4.136 4.295s4.136-1.75 4.136-4.295c0-2.386-1.75-4.136-4.136-4.136-2.387-.159-4.136 1.591-4.136 4.136zm20.681-5.568l-.478 1.75c-.477-.318-1.272-.477-1.909-.477-1.75 0-3.022 1.431-3.022 3.5v6.363h-1.75v-11.295h1.75v1.591c.795-1.114 1.909-1.75 3.341-1.75.795 0 1.431.159 2.068.318zm4.454 4.454h1.591l4.295-4.613h2.227l-5.09 5.25 5.249 6.045h-2.227l-4.454-5.091h-1.591v5.091h-1.75v-17.181h1.75v10.499z" fill="#000"/><g class="B"><path d="M933.831 112.01v217.946h-89.088V112.01h89.088z" class="C D"/><g class="E"><path d="M921.104 126.327v14.318H857.47v-14.318h63.634zm.127 21.445v14.318h-63.634v-14.318h63.634zm-.032 21.445v14.317h-63.634v-14.317h63.634zm-.031 21.444v14.318h-63.634v-14.318h63.634zm-.034 21.443v14.318H857.5v-14.318h63.634z"/><use xlink:href="#B"/></g><path d="M828.368 111.998v217.947h-89.087V111.998h89.087z" class="C D"/><path d="M815.642 126.316v14.318h-63.634v-14.318h63.634zm.125 21.445v14.317h-63.634v-14.317h63.634zm-.031 21.443v14.318h-63.635v-14.318h63.635zm-.032 21.445v14.317H752.07v-14.317h63.634zm-.032 21.444v14.318h-63.634v-14.318h63.634zm-4.758 46.171c2.635 0 4.772-2.136 4.772-4.772s-2.137-4.773-4.772-4.773-4.773 2.137-4.773 4.773 2.137 4.772 4.773 4.772z" class="E"/><path d="M722.906 111.987v217.947h-89.087V111.987h89.087z" class="C D"/><g class="E"><path d="M710.179 126.305v14.318h-63.634v-14.318h63.634zm.126 21.445v14.317h-63.634V147.75h63.634zm-.032 21.444v14.318h-63.634v-14.318h63.634zm-.032 21.445v14.318h-63.634v-14.318h63.634zm-.033 21.443V226.4h-63.634v-14.318h63.634z"/><use xlink:href="#B" x="-210.947"/></g></g><path d="M756.347 357.374c-1.749-1.113-3.818-1.749-5.886-1.749-2.863 0-4.772 1.272-4.772 3.181 0 1.75 1.591 2.387 4.454 2.864l1.432.159c3.5.477 6.841 1.909 6.841 5.886 0 4.295-3.978 6.682-8.432 6.682-2.863 0-6.363-.955-8.591-2.864l1.91-2.704c1.431 1.272 4.136 2.386 6.681 2.386 2.705 0 4.932-1.114 4.932-3.182 0-1.591-1.591-2.386-4.773-2.863l-1.591-.159c-3.181-.478-6.204-1.909-6.204-5.887 0-4.295 3.818-6.681 8.272-6.681 3.023 0 5.568.795 7.637 2.227l-1.91 2.704zm10.023 16.545h-3.5v-21.158h3.341v21.158h.159zm20.522-17.976h-6.841v17.976h-3.341v-17.976h-6.84v-3.182h17.181v3.182h-.159zm18.931 17.976h-15.431v-21.158h15.272v3.182h-11.772v5.727h11.454v3.181h-11.454v5.887h12.09v3.181h-.159zm11.613-17.976c.955-1.432 2.864-3.5 6.682-3.5 4.454 0 7 2.863 7 6.841 0 2.704-1.591 4.454-2.864 5.886l-5.25 5.727h8.75v3.181h-13.522v-2.545l7.636-8.113c1.113-1.273 1.909-2.546 1.909-3.977 0-2.069-1.432-3.659-3.659-3.659-2.068 0-3.341 1.113-4.296 2.386l-2.386-2.227zM112.689 67.044h-2.068l-1.909-4.614h-8.272l-1.909 4.614h-2.068l6.84-16.704h2.546l6.84 16.704zm-11.454-6.523h6.841l-3.341-8.272-3.5 8.272zm16.227-.318v6.681h-1.909V50.34h6.363c3.818 0 5.886 1.909 5.886 4.932 0 3.182-2.227 4.932-5.886 4.932h-4.454zm0-8.113v6.363h4.295c2.545 0 3.977-1.114 3.977-3.182s-1.432-3.182-3.977-3.182h-4.295zm15.908 8.113v6.681h-1.909V50.34h6.364c3.818 0 5.886 1.909 5.886 4.932 0 3.182-2.227 4.932-5.886 4.932h-4.455zm0-8.113v6.363h4.296c2.545 0 3.977-1.114 3.977-3.182s-1.432-3.182-3.977-3.182h-4.296zm25.454 14.954h-11.613V50.34h1.909v14.795h9.704v1.909zm4.772 0h-1.909V50.34h1.909v16.704zm19.409-13.522l-1.591 1.114a6.39 6.39 0 0 0-2.294-1.994c-.914-.471-1.928-.714-2.956-.71-3.818 0-6.681 2.704-6.681 6.682s2.863 6.682 6.681 6.682c2.227 0 4.136-.955 5.25-2.705l1.591 1.114c-1.432 2.068-3.818 3.341-6.841 3.341-4.931 0-8.59-3.659-8.59-8.591 0-5.091 3.659-8.591 8.59-8.591 2.864.159 5.409 1.432 6.841 3.659zm17.817 13.522h-2.068l-1.909-4.614h-8.272l-1.909 4.614h-2.068l6.84-16.704h2.387l6.999 16.704zm-11.454-6.523h6.841l-3.341-8.272-3.5 8.272zm24.658-8.431h-5.727v14.954h-1.909V52.09h-5.727v-1.75h13.523v1.75h-.16zm4.773 14.954h-1.909V50.34h1.909v16.704zm20.999-8.432c0 5.091-3.659 8.591-8.59 8.591s-8.591-3.659-8.591-8.591c0-5.091 3.659-8.591 8.591-8.591s8.59 3.659 8.59 8.591zm-15.113 0c0 3.977 2.864 6.682 6.682 6.682s6.681-2.705 6.681-6.682-2.863-6.682-6.681-6.682-6.682 2.704-6.682 6.682zm33.09 8.432h-1.75l-10.341-13.363v13.363h-1.909V50.34h1.75l10.341 13.363V50.34h1.909v16.704zm15.749-13.681c-1.272-.955-3.022-1.591-5.09-1.591-2.546 0-4.296 1.114-4.296 3.023 0 1.591 1.273 2.386 3.818 2.704l1.591.159c2.705.318 5.25 1.432 5.25 4.454 0 3.341-3.023 5.091-6.682 5.091-2.386 0-4.931-.795-6.522-2.227l1.113-1.591c1.114.954 3.341 1.909 5.568 1.909 2.546 0 4.614-1.114 4.614-3.023 0-1.591-1.432-2.386-3.977-2.705l-1.75-.159c-2.864-.318-4.932-1.591-4.932-4.454 0-3.182 2.864-4.932 6.364-4.932 2.545 0 4.454.795 6.045 1.75l-1.114 1.591z" fill="#000"/><path d="M632.738 33H935v47.726H632.738V33z" stroke="#000"/><g fill="#000"><path d="M710.372 67.044h-2.068l-1.909-4.614h-8.273l-1.909 4.614h-2.068l6.841-16.704h2.386l7 16.704zm-11.454-6.523h6.84l-3.34-8.272-3.5 8.272zm16.226-.318v6.681h-1.909V50.34h6.364c3.818 0 5.886 1.909 5.886 4.932 0 3.182-2.227 4.932-5.886 4.932h-4.455zm0-8.113v6.363h4.296c2.545 0 3.977-1.114 3.977-3.182s-1.432-3.182-3.977-3.182h-4.296zm15.909 8.113v6.681h-1.909V50.34h6.363c3.818 0 5.886 1.909 5.886 4.932 0 3.182-2.227 4.932-5.886 4.932h-4.454zm0-8.113v6.363h4.295c2.546 0 3.977-1.114 3.977-3.182s-1.431-3.182-3.977-3.182h-4.295zm25.454 14.954h-11.614V50.34h1.909v14.795h9.705v1.909zm4.772 0h-1.909V50.34h1.909v16.704zm19.408-13.522l-1.59 1.114a6.41 6.41 0 0 0-2.294-1.994c-.914-.471-1.928-.714-2.956-.71-3.818 0-6.682 2.704-6.682 6.682s2.864 6.682 6.682 6.682c2.227 0 4.136-.955 5.25-2.705l1.59 1.114c-1.431 2.068-3.818 3.341-6.84 3.341-4.932 0-8.591-3.659-8.591-8.591 0-5.091 3.659-8.591 8.591-8.591 2.863.159 5.409 1.432 6.84 3.659zm17.818 13.522h-2.068l-1.909-4.614h-8.273l-1.909 4.614h-2.068l6.841-16.704h2.386l7 16.704zm-11.454-6.523h6.841l-3.341-8.272-3.5 8.272zm24.658-8.431h-5.886v14.954h-1.909V52.09h-5.727v-1.75h13.522v1.75zm4.773 14.954h-1.909V50.34h1.909v16.704zm21.158-8.432c0 5.091-3.659 8.591-8.591 8.591s-8.59-3.659-8.59-8.591c0-5.091 3.659-8.591 8.59-8.591s8.591 3.659 8.591 8.591zm-15.272 0c0 3.977 2.863 6.682 6.681 6.682s6.682-2.705 6.682-6.682-2.864-6.682-6.682-6.682-6.681 2.704-6.681 6.682zm33.089 8.432h-1.75l-10.34-13.363v13.363h-1.909V50.34h1.75l10.34 13.363V50.34h1.909v16.704zm15.75-13.681c-1.273-.955-3.023-1.591-5.091-1.591-2.545 0-4.295 1.114-4.295 3.023 0 1.591 1.272 2.386 3.818 2.704l1.591.159c2.704.318 5.25 1.432 5.25 4.454 0 3.341-3.023 5.091-6.682 5.091-2.386 0-4.932-.795-6.523-2.227l1.114-1.591c1.114.954 3.341 1.909 5.568 1.909 2.545 0 4.614-1.114 4.614-3.023 0-1.591-1.432-2.386-3.978-2.705l-1.75-.159c-2.863-.318-4.931-1.591-4.931-4.454 0-3.182 2.863-4.932 6.363-4.932 2.546 0 4.455.795 6.045 1.75l-1.113 1.591z"/><path d="M51.601 430.076h-2.068l-1.909-4.613h-8.272l-1.909 4.613h-2.068l6.841-16.704h2.386l7 16.704zm-11.454-6.522h6.841l-3.341-8.272-3.5 8.272zm25.454.795c0 3.341-2.545 5.887-5.727 5.887-1.909 0-3.182-.796-4.136-1.91v6.523h-1.75v-16.068h1.75v1.75c.955-1.113 2.227-1.909 4.136-1.909 3.341-.159 5.727 2.387 5.727 5.727zm-9.863 0c0 2.387 1.591 4.296 3.977 4.296s3.977-1.909 3.977-4.296-1.591-4.136-3.977-4.136c-2.227 0-3.977 1.75-3.977 4.136zm24.817 0c0 3.341-2.545 5.887-5.727 5.887-1.909 0-3.182-.796-4.136-1.91v6.523h-1.75v-16.068h1.75v1.75c.954-1.113 2.227-1.909 4.136-1.909 3.182-.159 5.727 2.387 5.727 5.727zm-9.863 0c0 2.387 1.591 4.296 3.977 4.296s3.977-1.909 3.977-4.296-1.591-4.136-3.977-4.136-3.977 1.75-3.977 4.136zm20.681-3.181c-.795-.478-2.227-1.114-3.659-1.114-1.591 0-2.704.636-2.704 1.75 0 .955.795 1.432 2.227 1.591l1.273.159c2.386.318 3.818 1.273 3.818 3.182 0 2.227-1.909 3.5-4.932 3.5-1.432 0-3.341-.319-4.773-1.432l.795-1.273c.795.636 2.068 1.273 3.977 1.273s3.182-.637 3.182-1.75c0-.955-.796-1.432-2.386-1.591l-1.273-.159c-2.545-.318-3.659-1.432-3.659-3.182 0-2.068 1.75-3.5 4.454-3.5 1.75 0 3.341.478 4.454 1.273l-.795 1.273zm21.317 8.908h-1.75v-1.75c-.954 1.114-2.227 1.91-4.136 1.91-3.182 0-5.727-2.546-5.727-5.887s2.545-5.886 5.727-5.886c1.909 0 3.182.796 4.136 1.909v-1.75h1.75v11.454zm-9.704-5.727c0 2.387 1.591 4.296 3.977 4.296s3.977-1.75 3.977-4.296c0-2.386-1.75-4.136-3.977-4.136-2.386 0-3.977 1.909-3.977 4.136zm23.067-4.136l-1.113 1.273c-.796-.796-1.909-1.273-3.023-1.273-2.227 0-3.977 1.75-3.977 4.136s1.75 4.296 3.977 4.296c1.273 0 2.386-.478 3.182-1.273l1.113 1.273c-.954 1.113-2.545 1.75-4.136 1.75-3.5 0-5.886-2.546-5.886-5.887s2.386-5.886 5.886-5.886c1.432-.159 2.864.478 3.977 1.591zm11.932 0l-1.114 1.273c-.795-.796-1.909-1.273-3.022-1.273-2.228 0-3.978 1.75-3.978 4.136s1.75 4.296 3.978 4.296c1.272 0 2.386-.478 3.181-1.273l1.114 1.273c-.955 1.113-2.546 1.75-4.136 1.75-3.5 0-5.887-2.546-5.887-5.887s2.387-5.886 5.887-5.886a4.58 4.58 0 0 1 3.977 1.591zm12.886 4.136v.637h-9.068c.318 2.386 1.909 3.659 3.977 3.659 1.432 0 2.545-.478 3.659-1.432l.954 1.273c-1.26 1.146-2.909 1.771-4.613 1.75-3.341 0-5.727-2.387-5.727-5.887s2.386-5.886 5.568-5.886c3.022 0 5.25 2.386 5.25 5.886zm-9.068-.795h7.318c-.159-2.068-1.591-3.5-3.5-3.5-2.068 0-3.5 1.432-3.818 3.5zm20.044-2.386c-.795-.478-2.227-1.114-3.658-1.114-1.591 0-2.705.636-2.705 1.75 0 .955.796 1.432 2.227 1.591l1.273.159c2.386.318 3.818 1.273 3.818 3.182 0 2.227-1.909 3.5-4.932 3.5-1.431 0-3.34-.319-4.772-1.432l.795-1.273c.796.636 2.068 1.273 3.977 1.273s3.182-.637 3.182-1.75c0-.955-.795-1.432-2.386-1.591l-1.273-.159c-2.545-.318-3.659-1.432-3.659-3.182 0-2.068 1.75-3.5 4.455-3.5 1.749 0 3.34.478 4.454 1.273l-.796 1.273zm11.773 0c-.796-.478-2.227-1.114-3.659-1.114-1.591 0-2.705.636-2.705 1.75 0 .955.796 1.432 2.228 1.591l1.272.159c2.387.318 3.818 1.273 3.818 3.182 0 2.227-1.909 3.5-4.931 3.5-1.432 0-3.341-.319-4.773-1.432l.796-1.273c.795.636 2.068 1.273 3.977 1.273s3.181-.637 3.181-1.75c0-.955-.795-1.432-2.386-1.591l-1.273-.159c-2.545-.318-3.659-1.432-3.659-3.182 0-2.068 1.75-3.5 4.455-3.5 1.75 0 3.341.478 4.454 1.273l-.795 1.273zm18.135 0c-.795-.478-2.227-1.114-3.658-1.114-1.591 0-2.705.636-2.705 1.75 0 .955.796 1.432 2.227 1.591l1.273.159c2.386.318 3.818 1.273 3.818 3.182 0 2.227-1.909 3.5-4.932 3.5-1.431 0-3.34-.319-4.772-1.432l.795-1.273c.796.636 2.068 1.273 3.977 1.273s3.182-.637 3.182-1.75c0-.955-.795-1.432-2.386-1.591l-1.273-.159c-2.545-.318-3.659-1.432-3.659-3.182 0-2.068 1.75-3.5 4.455-3.5 1.749 0 3.34.478 4.454 1.273l-.796 1.273zm6.364-6.523c0 .637-.636 1.273-1.273 1.273-.795 0-1.272-.477-1.272-1.273s.477-1.273 1.272-1.273c.637.16 1.273.637 1.273 1.273zm-.318 15.431h-1.75v-11.295h1.75v11.295zm11.772-9.704h-4.932v5.727c0 1.75.955 2.546 2.228 2.546a4.29 4.29 0 0 0 2.386-.796l.795 1.273c-.795.636-1.909 1.114-3.341 1.114-2.386 0-3.818-1.273-3.818-4.137v-5.727h-2.545v-1.591h2.545v-3.659h1.75v3.659h4.932v1.591zm13.204 3.977v.637h-9.068c.318 2.386 1.909 3.659 3.977 3.659 1.432 0 2.546-.478 3.659-1.432l.955 1.273c-1.261 1.146-2.91 1.771-4.614 1.75-3.34 0-5.727-2.387-5.727-5.887s2.387-5.886 5.568-5.886c3.023 0 5.25 2.386 5.25 5.886zm-9.068-.795h7.318c-.159-2.068-1.591-3.5-3.5-3.5-2.227 0-3.5 1.432-3.818 3.5zm24.181 6.522h-1.909v-14.317l-4.931 2.068v-1.909l6.84-2.864v17.022zm21.636 0h-1.75v-1.75c-.955 1.114-2.227 1.91-4.136 1.91-3.182 0-5.727-2.546-5.727-5.887s2.545-5.886 5.727-5.886c1.909 0 3.181.796 4.136 1.909v-1.75h1.75v11.454zm-9.704-5.727c0 2.387 1.59 4.296 3.977 4.296s3.977-1.75 3.977-4.296c0-2.386-1.75-4.136-3.977-4.136-2.387 0-3.977 1.909-3.977 4.136zm24.18-1.272v6.999h-1.749v-6.363c0-2.227-1.273-3.341-3.182-3.341s-3.5 1.273-3.5 3.5v6.364h-1.75V418.94h1.75v1.591a4.74 4.74 0 0 1 3.818-1.909c2.704-.159 4.613 1.75 4.613 4.455zm13.045-2.705v-7.636h1.75v17.181h-1.75v-1.75c-.954 1.114-2.227 1.909-4.136 1.909-3.181 0-5.727-2.545-5.727-5.886s2.546-5.886 5.727-5.886c1.75.159 3.182.955 4.136 2.068zm-7.954 3.977c0 2.387 1.591 4.296 3.977 4.296s3.977-1.75 3.977-4.296c0-2.386-1.749-4.136-3.977-4.136-2.386 0-3.977 1.909-3.977 4.136zm31.499-7.795c-1.273-.954-3.023-1.591-5.091-1.591-2.545 0-4.295 1.114-4.295 3.023 0 1.591 1.273 2.386 3.818 2.704l1.591.159c2.704.319 5.25 1.432 5.25 4.455 0 3.341-3.023 5.091-6.682 5.091-2.386 0-4.931-.796-6.522-2.228l1.113-1.59c1.114.954 3.341 1.909 5.568 1.909 2.546 0 4.614-1.114 4.614-3.023 0-1.591-1.432-2.386-3.977-2.705l-1.75-.159c-2.864-.318-4.932-1.59-4.932-4.454 0-3.182 2.864-4.932 6.363-4.932 2.546 0 4.455.796 6.046 1.75l-1.114 1.591zm7-1.909c0 .637-.637 1.273-1.273 1.273-.795 0-1.273-.477-1.273-1.273s.478-1.273 1.273-1.273c.636.16 1.273.637 1.273 1.273zm-.477 15.431h-1.75v-11.295h1.75v11.295zm11.931-9.704h-4.932v5.727c0 1.75.955 2.546 2.227 2.546.796 0 1.75-.319 2.387-.796l.795 1.273c-.795.636-1.909 1.114-3.341 1.114-2.386 0-3.818-1.273-3.818-4.137v-5.727h-2.545v-1.591h2.545v-3.659h1.75v3.659h4.932v1.591zm13.204 3.977v.637h-9.068c.318 2.386 1.909 3.659 3.977 3.659 1.432 0 2.546-.478 3.659-1.432l.955 1.273c-1.261 1.146-2.91 1.771-4.614 1.75-3.341 0-5.727-2.387-5.727-5.887s2.386-5.886 5.568-5.886c2.864 0 5.091 2.386 5.25 5.886zm-9.227-.795h7.318c-.159-2.068-1.591-3.5-3.5-3.5-2.068 0-3.5 1.432-3.818 3.5zm17.818-7.636c.795-1.114 2.227-2.705 5.09-2.705 3.341 0 5.409 2.228 5.409 5.091 0 2.068-1.113 3.5-2.227 4.773l-4.932 5.249h7.796v1.75h-10.5v-1.431l6.363-6.682c.955-1.114 1.75-2.227 1.75-3.659 0-1.909-1.272-3.341-3.5-3.341-1.909 0-2.863.955-3.659 2.068l-1.59-1.113zm29.43 4.454v-7.636h1.75v17.181h-1.75v-1.75c-.954 1.114-2.227 1.909-4.136 1.909-3.182 0-5.727-2.545-5.727-5.886s2.545-5.886 5.727-5.886c1.909.159 3.182.955 4.136 2.068zm-7.954 3.977c0 2.387 1.591 4.296 3.977 4.296s3.977-1.75 3.977-4.296c0-2.386-1.75-4.136-3.977-4.136-2.386 0-3.977 1.909-3.977 4.136zm16.068-9.704c0 .637-.637 1.273-1.273 1.273-.795 0-1.273-.477-1.273-1.273s.478-1.273 1.273-1.273c.636.16 1.273.637 1.273 1.273zm-.319 15.431h-1.749v-11.295h1.749v11.295zm11.296-11.136l-.478 1.75c-.477-.318-1.272-.477-1.909-.477-1.75 0-3.022 1.432-3.022 3.5v6.363h-1.75v-11.295h1.75v1.591c.795-1.113 1.909-1.75 3.34-1.75.796-.159 1.432 0 2.069.318zm12.249 5.409v.637h-9.068c.318 2.386 1.909 3.659 3.977 3.659 1.432 0 2.546-.478 3.659-1.432l.955 1.273c-1.261 1.146-2.91 1.771-4.614 1.75-3.34 0-5.727-2.387-5.727-5.887s2.387-5.886 5.568-5.886c3.023 0 5.25 2.386 5.25 5.886zm-9.068-.795h7.318c-.159-2.068-1.591-3.5-3.5-3.5-2.068 0-3.5 1.432-3.818 3.5zm21.636-3.341l-1.114 1.273c-.795-.796-1.909-1.273-3.022-1.273-2.228 0-3.978 1.75-3.978 4.136s1.75 4.296 3.978 4.296c1.272 0 2.386-.478 3.181-1.273l1.114 1.273c-.955 1.113-2.545 1.75-4.136 1.75-3.5 0-5.886-2.546-5.886-5.887s2.386-5.886 5.886-5.886c1.431-.159 2.863.478 3.977 1.591zm10.818.159h-4.932v5.727c0 1.75.954 2.546 2.227 2.546a4.29 4.29 0 0 0 2.386-.796l.796 1.273c-.796.636-1.909 1.114-3.341 1.114-2.386 0-3.818-1.273-3.818-4.137v-5.727h-2.545v-1.591h2.545v-3.659h1.75v3.659h4.932v1.591zm4.931 9.704h-1.75v-17.181h1.75v17.181zm5.25 4.773h-1.909l4.295-7.318-5.249-8.909h2.068l4.136 7.159 3.977-7.159h1.909l-9.227 16.227zm-401.372 7.159c5.409 0 8.909 3.182 8.909 8.431 0 5.091-3.5 8.432-8.909 8.432h-6.363v-16.704h6.363v-.159zm-4.454 1.75v13.045h4.454c4.454 0 6.841-2.705 6.841-6.523 0-3.977-2.386-6.522-6.841-6.522h-4.454zm27.522 14.954h-1.75v-1.75c-.955 1.113-2.227 1.909-4.136 1.909-3.182 0-5.727-2.546-5.727-5.886s2.545-5.886 5.727-5.886c1.909 0 3.182.795 4.136 1.909v-1.75h1.75v11.454zm-9.704-5.727c0 2.386 1.591 4.295 3.977 4.295s3.977-1.75 3.977-4.295c0-2.387-1.75-4.137-3.977-4.137-2.386 0-3.977 1.909-3.977 4.137zm21.636-3.977h-4.932v5.727c0 1.75.954 2.545 2.227 2.545a4.29 4.29 0 0 0 2.386-.795l.795 1.272c-.795.637-1.909 1.114-3.341 1.114-2.386 0-3.818-1.273-3.818-4.136v-5.727h-2.545v-1.591h2.545v-3.659h1.75v3.659h4.932v1.591zm13.84 9.704h-1.75v-1.75c-.954 1.113-2.227 1.909-4.136 1.909-3.182 0-5.727-2.546-5.727-5.886s2.545-5.886 5.727-5.886c1.909 0 3.182.795 4.136 1.909v-1.75h1.75v11.454zm-9.863-5.727c0 2.386 1.591 4.295 3.977 4.295s3.977-1.75 3.977-4.295c0-2.387-1.75-4.137-3.977-4.137s-3.977 1.909-3.977 4.137zm29.113-3.977v-1.75h1.75v10.499c0 3.659-2.546 5.727-6.046 5.727-1.749 0-3.658-.636-4.772-1.591l.795-1.431a6.6 6.6 0 0 0 3.977 1.272c2.387 0 4.137-1.431 4.137-3.977v-1.113c-.796 1.113-2.228 1.909-3.977 1.909-3.182 0-5.568-2.387-5.568-5.727s2.386-5.727 5.568-5.727c1.909 0 3.34.795 4.136 1.909zm-7.795 3.977c0 2.227 1.59 4.136 3.977 4.136s3.977-1.75 3.977-4.136-1.591-4.137-3.977-4.137-3.977 1.75-3.977 4.137zm24.817 0c0 3.34-2.545 5.886-5.886 5.886s-5.886-2.546-5.886-5.886 2.545-5.886 5.886-5.886 5.886 2.545 5.886 5.886zm-10.022 0c0 2.386 1.749 4.295 4.136 4.295s4.136-1.75 4.136-4.295c0-2.387-1.75-4.137-4.136-4.137s-4.136 1.75-4.136 4.137zm23.385 0v.636h-9.068c.318 2.386 1.909 3.659 3.977 3.659 1.432 0 2.546-.477 3.659-1.432l.955 1.273a6.73 6.73 0 0 1-4.614 1.75c-3.34 0-5.727-2.386-5.727-5.886s2.387-5.886 5.568-5.886c3.023 0 5.25 2.386 5.25 5.886zm-9.068-.796h7.318c-.159-2.068-1.591-3.5-3.5-3.5-2.227 0-3.5 1.432-3.818 3.5zm20.045-2.386c-.796-.477-2.227-1.114-3.659-1.114-1.591 0-2.704.637-2.704 1.75 0 .955.795 1.432 2.227 1.591l1.272.159c2.387.318 3.818 1.273 3.818 3.182 0 2.227-1.909 3.5-4.931 3.5-1.432 0-3.341-.318-4.773-1.432l.796-1.273c.795.637 2.068 1.273 3.977 1.273s3.181-.636 3.181-1.75c0-.954-.795-1.432-2.386-1.591l-1.272-.159c-2.546-.318-3.659-1.432-3.659-3.182 0-2.068 1.749-3.499 4.454-3.499 1.75 0 3.341.477 4.454 1.272l-.795 1.273zm17.658-.795h-4.454v9.704h-1.75v-9.704h-2.545v-1.591h2.545v-1.909c0-2.387 1.114-4.137 3.818-4.137 1.273 0 2.227.319 3.023.796l-.637 1.432c-.636-.319-1.431-.637-2.386-.637-1.432 0-2.068.955-2.068 2.546v1.909h4.454v1.591zm9.864-1.432l-.478 1.75c-.477-.318-1.272-.478-1.909-.478-1.75 0-3.022 1.432-3.022 3.5v6.364h-1.75v-11.295h1.75v1.591c.795-1.114 1.909-1.75 3.341-1.75.795-.159 1.431 0 2.068.318zm13.204 5.409c0 3.34-2.546 5.886-5.886 5.886s-5.887-2.546-5.887-5.886 2.546-5.886 5.887-5.886 5.886 2.545 5.886 5.886zm-10.023 0c0 2.386 1.75 4.295 4.137 4.295s4.136-1.75 4.136-4.295c0-2.387-1.75-4.137-4.136-4.137s-4.137 1.75-4.137 4.137zm32.136-1.273v7h-1.75v-6.364c0-2.227-1.273-3.34-3.341-3.34-1.909 0-3.5 1.272-3.5 3.499v6.364h-1.75v-6.364c0-2.227-1.273-3.34-3.182-3.34s-3.5 1.272-3.5 3.5v6.363h-1.75v-11.295h1.75v1.591c.443-.595 1.019-1.077 1.682-1.409a4.74 4.74 0 0 1 2.136-.5c1.909 0 3.5.954 4.296 2.386.954-1.75 2.704-2.386 4.295-2.386 2.704-.318 4.614 1.591 4.614 4.295zm21.635-6.523c-1.273-.954-3.023-1.59-5.091-1.59-2.545 0-4.295 1.113-4.295 3.022 0 1.591 1.273 2.387 3.818 2.705l1.591.159c2.704.318 5.25 1.432 5.25 4.454 0 3.341-3.023 5.091-6.682 5.091-2.386 0-4.931-.796-6.522-2.227l1.113-1.591c1.114.954 3.341 1.909 5.568 1.909 2.546 0 4.614-1.114 4.614-3.023 0-1.591-1.432-2.386-3.977-2.704l-1.75-.159c-2.864-.318-4.932-1.591-4.932-4.455 0-3.181 2.864-4.931 6.363-4.931 2.546 0 4.455.795 6.046 1.75l-1.114 1.59zm7-1.908c0 .636-.637 1.272-1.273 1.272-.795 0-1.273-.477-1.273-1.272s.478-1.273 1.273-1.273c.796.159 1.273.636 1.273 1.273zm-.318 15.431h-1.75v-11.295h1.75v11.295zm11.772-9.704h-4.932v5.727c0 1.75.955 2.545 2.228 2.545.795 0 1.749-.318 2.386-.795l.795 1.272c-.795.637-1.909 1.114-3.341 1.114-2.386 0-3.818-1.273-3.818-4.136v-5.727h-2.545v-1.591h2.545v-3.659h1.75v3.659h4.932v1.591zm13.204 3.977v.636h-9.068c.318 2.386 1.909 3.659 3.977 3.659 1.432 0 2.546-.477 3.659-1.432l.955 1.273a6.73 6.73 0 0 1-4.614 1.75c-3.34 0-5.727-2.386-5.727-5.886s2.387-5.886 5.568-5.886c3.023 0 5.25 2.386 5.25 5.886zm-9.068-.796h7.318c-.159-2.068-1.591-3.5-3.5-3.5-2.227 0-3.5 1.432-3.818 3.5zm24.181 6.523h-1.909v-14.318l-4.932 2.068v-1.909l6.841-2.863v17.022zm20.84-1.114l-9.386-4.454v-1.75l9.386-4.455v1.909l-7.636 3.341 7.636 3.5v1.909zM316 453.144h-6.523v-1.591h6.682v1.591H316zm4.136-6.045l9.386 4.454v1.75l-9.386 4.454v-1.909l7.636-3.341-7.636-3.499v-1.909zm22.59-3.818c0 .636-.636 1.272-1.272 1.272-.796 0-1.273-.477-1.273-1.272s.477-1.273 1.273-1.273c.636.159 1.272.636 1.272 1.273zm-.477 15.431h-1.75v-11.295h1.75v11.295zm14.477-7v7h-1.75v-6.364c0-2.227-1.273-3.34-3.182-3.34s-3.5 1.272-3.5 3.499v6.364h-1.75v-11.295h1.75v1.591c.443-.595 1.019-1.077 1.682-1.409a4.74 4.74 0 0 1 2.136-.5c2.705-.159 4.614 1.75 4.614 4.454zm11.613-2.704h-4.932v5.727c0 1.75.955 2.545 2.228 2.545.795 0 1.749-.318 2.386-.795l.795 1.272c-.795.637-1.909 1.114-3.341 1.114-2.386 0-3.818-1.273-3.818-4.136v-5.727h-2.545v-1.591h2.545v-3.659h1.75v3.659h4.932v1.591zm13.204 3.977v.636h-9.068c.318 2.386 1.909 3.659 3.977 3.659 1.432 0 2.546-.477 3.659-1.432l.955 1.273a6.73 6.73 0 0 1-4.614 1.75c-3.34 0-5.727-2.386-5.727-5.886s2.387-5.886 5.568-5.886c3.023 0 5.25 2.386 5.25 5.886zm-9.068-.796h7.318c-.159-2.068-1.591-3.5-3.5-3.5-2.227 0-3.659 1.432-3.818 3.5zm19.568-4.613l-.478 1.75c-.477-.318-1.272-.478-1.909-.478-1.75 0-3.022 1.432-3.022 3.5v6.364h-1.75v-11.295h1.75v1.591c.795-1.114 1.909-1.75 3.341-1.75.795-.159 1.431 0 2.068.318zm12.886 4.136v7h-1.75v-6.364c0-2.227-1.273-3.34-3.182-3.34s-3.5 1.272-3.5 3.499v6.364h-1.75v-11.295h1.75v1.591c.443-.595 1.019-1.077 1.682-1.409a4.74 4.74 0 0 1 2.136-.5c2.705-.159 4.614 1.75 4.614 4.454zm14.158 1.273v.636h-9.068c.318 2.386 1.909 3.659 3.977 3.659 1.432 0 2.546-.477 3.659-1.432l.955 1.273a6.73 6.73 0 0 1-4.614 1.75c-3.34 0-5.727-2.386-5.727-5.886s2.387-5.886 5.568-5.886c3.023 0 5.25 2.386 5.25 5.886zm-9.068-.796h7.318c-.159-2.068-1.591-3.5-3.5-3.5-2.227 0-3.5 1.432-3.818 3.5zm19.886-3.181h-4.932v5.727c0 1.75.955 2.545 2.227 2.545.796 0 1.75-.318 2.387-.795l.795 1.272c-.795.637-1.909 1.114-3.341 1.114-2.386 0-3.818-1.273-3.818-4.136v-5.727h-2.386v-1.591h2.545v-3.659h1.75v3.659h4.932v1.591h-.159zm3.182 12.09h-1.909l10.181-20.84h1.909l-10.181 20.84zm20.999-9.386v7h-1.75v-6.364c0-2.227-1.273-3.34-3.182-3.34s-3.5 1.272-3.5 3.499v6.364h-1.75v-11.295h1.75v1.591c.443-.595 1.019-1.077 1.682-1.409a4.74 4.74 0 0 1 2.136-.5c2.705-.159 4.614 1.75 4.614 4.454zm13.999 1.273v.636h-9.068c.319 2.386 1.909 3.659 3.978 3.659 1.431 0 2.545-.477 3.658-1.432l.955 1.273a6.73 6.73 0 0 1-4.613 1.75c-3.341 0-5.728-2.386-5.728-5.886s2.387-5.886 5.568-5.886c3.023 0 5.25 2.386 5.25 5.886zm-9.068-.796h7.318c-.159-2.068-1.591-3.5-3.5-3.5-2.068 0-3.499 1.432-3.818 3.5zm20.045-3.181h-4.931v5.727c0 1.75.954 2.545 2.227 2.545a4.29 4.29 0 0 0 2.386-.795l.795 1.272c-.795.637-1.909 1.114-3.34 1.114-2.387 0-3.818-1.273-3.818-4.136v-5.727h-2.546v-1.591h2.546v-3.659h1.75v3.659h4.931v1.591zm15.59 7.795l3.341-9.386h1.909l-4.136 11.295h-2.068l-3.341-9.386-3.341 9.386h-2.068l-4.136-11.295h1.909l3.341 9.386 3.341-9.386h2.068l3.181 9.386zm18.773-3.818c0 3.34-2.546 5.886-5.887 5.886s-5.886-2.546-5.886-5.886 2.546-5.886 5.886-5.886 5.887 2.545 5.887 5.886zm-10.023 0c0 2.386 1.75 4.295 4.136 4.295s4.137-1.75 4.137-4.295c0-2.387-1.75-4.137-4.137-4.137s-4.136 1.75-4.136 4.137zm20.681-5.409l-.477 1.75c-.477-.318-1.273-.478-1.909-.478-1.75 0-3.023 1.432-3.023 3.5v6.364h-1.75v-11.295h1.75v1.591c.796-1.114 1.909-1.75 3.341-1.75.796-.159 1.432 0 2.068.318zm4.455 4.454h1.59l4.296-4.613h2.227l-5.091 5.25 5.25 6.045h-2.227l-4.455-5.091h-1.59v5.091h-1.75v-17.181h1.75v10.499zm26.249-3.182l-1.114 1.273c-.795-.795-1.909-1.273-3.023-1.273-2.227 0-3.977 1.75-3.977 4.137s1.75 4.295 3.977 4.295c1.273 0 2.387-.477 3.182-1.273l1.114 1.273c-.955 1.114-2.546 1.75-4.136 1.75-3.5 0-5.887-2.545-5.887-5.886s2.387-5.886 5.887-5.886c1.431-.159 2.863.477 3.977 1.59zm4.772 9.864h-1.75v-17.181h1.75v17.181zm15.272-5.727c0 3.34-2.545 5.886-5.886 5.886s-5.886-2.546-5.886-5.886 2.545-5.886 5.886-5.886 5.886 2.545 5.886 5.886zm-10.181 0c0 2.386 1.75 4.295 4.136 4.295s4.136-1.75 4.136-4.295c0-2.387-1.75-4.137-4.136-4.137s-4.136 1.75-4.136 4.137zm23.545.954c0 3.341-2.387 4.932-5.091 4.932s-5.091-1.591-5.091-4.932v-6.522h1.75v6.363c0 2.386 1.432 3.5 3.341 3.5s3.341-1.114 3.341-3.5v-6.363h1.75v6.522zm13.044-4.931v-7.637h1.75v17.182h-1.75v-1.75c-.954 1.113-2.227 1.909-4.136 1.909-3.181 0-5.727-2.546-5.727-5.886s2.546-5.887 5.727-5.887c1.75.16 3.182.955 4.136 2.069zm-8.113 3.977c0 2.386 1.591 4.295 3.977 4.295s3.977-1.75 3.977-4.295c0-2.387-1.75-4.137-3.977-4.137s-3.977 1.909-3.977 4.137zm30.067 4.613l-9.386-4.454v-1.75l9.386-4.455v1.909l-7.636 3.341 7.636 3.5v1.909zm10.818-4.454h-6.682v-1.591h6.682v1.591zm4.136-6.045l9.386 4.454v1.75l-9.386 4.454v-1.909l7.636-3.341-7.636-3.499v-1.909zm31.658-1.91c-1.273-.954-3.022-1.59-5.091-1.59-2.545 0-4.295 1.113-4.295 3.022 0 1.591 1.273 2.387 3.818 2.705l1.591.159c2.704.318 5.25 1.432 5.25 4.454 0 3.341-3.023 5.091-6.682 5.091-2.386 0-4.931-.796-6.522-2.227l1.113-1.591c1.114.954 3.341 1.909 5.568 1.909 2.546 0 4.614-1.114 4.614-3.023 0-1.591-1.432-2.386-3.977-2.704l-1.75-.159c-2.864-.318-4.932-1.591-4.932-4.455 0-3.181 2.864-4.931 6.364-4.931 2.545 0 4.454.795 6.045 1.75l-1.114 1.59zm6.841-1.908c0 .636-.637 1.272-1.273 1.272-.795 0-1.273-.477-1.273-1.272s.478-1.273 1.273-1.273c.796.159 1.273.636 1.273 1.273zm-.318 15.431h-1.75v-11.295h1.75v11.295zm11.931-9.704h-4.932v5.727c0 1.75.955 2.545 2.228 2.545a4.29 4.29 0 0 0 2.386-.795l.795 1.272c-.795.637-1.909 1.114-3.341 1.114-2.386 0-3.818-1.273-3.818-4.136v-5.727h-2.545v-1.591h2.545v-3.659h1.75v3.659h4.932v1.591zm13.045 3.977v.636h-9.068c.318 2.386 1.909 3.659 3.977 3.659 1.432 0 2.546-.477 3.659-1.432l.955 1.273a6.73 6.73 0 0 1-4.614 1.75c-3.34 0-5.727-2.386-5.727-5.886s2.387-5.886 5.568-5.886c3.023 0 5.25 2.386 5.25 5.886zm-9.068-.796h7.318c-.159-2.068-1.591-3.5-3.5-3.5-2.068 0-3.5 1.432-3.818 3.5zm17.659-7.636c.795-1.113 2.227-2.704 5.09-2.704 3.341 0 5.409 2.227 5.409 5.09 0 2.069-1.113 3.5-2.227 4.773l-4.932 5.25h7.796v1.75h-10.659v-1.432l6.363-6.682c.955-1.113 1.75-2.227 1.75-3.659 0-1.909-1.272-3.34-3.5-3.34-1.909 0-2.863.954-3.659 2.068l-1.431-1.114zM39.351 487.347h-1.909v-16.704h1.909v16.704zm11.931-9.704h-4.454v9.704h-1.75v-9.704h-2.545v-1.591h2.545v-1.909c0-2.386 1.114-4.136 3.818-4.136 1.273 0 2.227.318 3.023.795l-.636 1.432c-.636-.318-1.432-.636-2.386-.636-1.432 0-2.068.954-2.068 2.545v1.909h4.454v1.591zm19.249 3.977v.636h-9.227c.318 2.387 1.909 3.659 3.977 3.659 1.432 0 2.545-.477 3.659-1.431l.955 1.272c-1.261 1.147-2.91 1.772-4.614 1.75-3.341 0-5.727-2.386-5.727-5.886s2.386-5.886 5.568-5.886 5.409 2.386 5.409 5.886zm-9.068-.795h7.318c-.159-2.069-1.591-3.5-3.5-3.5-2.227 0-3.659 1.431-3.818 3.5zm14.477-8.909c0 .636-.636 1.272-1.273 1.272-.796 0-1.273-.477-1.273-1.272s.477-1.273 1.273-1.273c.795.159 1.273.636 1.273 1.273zm-.318 15.431h-1.75v-11.295h1.75v11.295zm11.772-9.704h-4.932v5.727c0 1.75.955 2.545 2.227 2.545a4.29 4.29 0 0 0 2.386-.795l.795 1.273c-.795.636-1.909 1.113-3.341 1.113-2.386 0-3.818-1.273-3.818-4.136v-5.727h-2.545v-1.591h2.545v-3.659h1.75v3.659h4.932v1.591zm4.932 0c.954-1.273 2.386-1.75 3.818-1.75 2.864 0 4.773 1.75 4.773 4.454v7h-1.75v-6.363c0-2.228-1.273-3.341-3.182-3.341s-3.5 1.273-3.5 3.5v6.363h-1.75v-17.181h1.75v7.318h-.159zm22.59 3.977v.636h-9.067c.318 2.387 1.909 3.659 3.977 3.659 1.431 0 2.545-.477 3.659-1.431l.954 1.272c-1.261 1.147-2.909 1.772-4.613 1.75-3.341 0-5.727-2.386-5.727-5.886s2.386-5.886 5.568-5.886c3.022 0 5.249 2.386 5.249 5.886zm-9.067-.795h7.317c-.159-2.069-1.59-3.5-3.499-3.5-2.069 0-3.5 1.431-3.818 3.5zm19.567-4.614l-.477 1.75c-.478-.318-1.273-.477-1.909-.477-1.75 0-3.023 1.432-3.023 3.5v6.363h-1.75v-11.295h1.75v1.591c.796-1.114 1.909-1.75 3.341-1.75.795-.159 1.591 0 2.068.318zm16.386 2.227c-.796-.477-2.227-1.113-3.659-1.113-1.591 0-2.705.636-2.705 1.75 0 .954.796 1.431 2.228 1.59l1.272.16c2.387.318 3.818 1.272 3.818 3.181 0 2.227-1.909 3.5-4.931 3.5-1.432 0-3.341-.318-4.773-1.432l.796-1.272c.795.636 2.068 1.272 3.977 1.272s3.181-.636 3.181-1.75c0-.954-.795-1.431-2.386-1.59l-1.273-.16c-2.545-.318-3.659-1.431-3.659-3.181 0-2.068 1.75-3.5 4.455-3.5 1.75 0 3.341.477 4.454 1.273l-.795 1.272zm6.363-6.522c0 .636-.636 1.272-1.272 1.272-.796 0-1.273-.477-1.273-1.272s.477-1.273 1.273-1.273c.795.159 1.272.636 1.272 1.273zm-.318 15.431h-1.75v-11.295h1.75v11.295zm11.772-9.704h-4.931v5.727c0 1.75.954 2.545 2.227 2.545a4.29 4.29 0 0 0 2.386-.795l.796 1.273c-.796.636-1.909 1.113-3.341 1.113-2.387 0-3.818-1.273-3.818-4.136v-5.727h-2.546v-1.591h2.546v-3.659h1.75v3.659h4.931v1.591zm13.204 3.977v.636h-9.067c.318 2.387 1.909 3.659 3.977 3.659 1.431 0 2.545-.477 3.659-1.431l.954 1.272c-1.261 1.147-2.909 1.772-4.613 1.75-3.341 0-5.727-2.386-5.727-5.886s2.386-5.886 5.568-5.886c3.022 0 5.249 2.386 5.249 5.886zm-9.067-.795h7.317c-.159-2.069-1.59-3.5-3.499-3.5-2.228 0-3.5 1.431-3.818 3.5zm27.521-3.182v-1.75h1.75v10.5c0 3.658-2.545 5.727-6.045 5.727-1.75 0-3.659-.637-4.773-1.591l.796-1.432c1.113.795 2.386 1.273 3.977 1.273 2.386 0 4.136-1.432 4.136-3.977v-1.114c-.795 1.114-2.227 1.909-3.977 1.909-3.182 0-5.568-2.386-5.568-5.727s2.386-5.727 5.568-5.727c1.909 0 3.341.795 4.136 1.909zm-7.795 3.977c0 2.227 1.591 4.136 3.977 4.136s3.977-1.75 3.977-4.136-1.591-4.136-3.977-4.136-3.977 1.75-3.977 4.136zm24.817 0c0 3.341-2.545 5.886-5.886 5.886s-5.886-2.545-5.886-5.886 2.545-5.886 5.886-5.886 5.886 2.545 5.886 5.886zm-10.022 0c0 2.386 1.75 4.295 4.136 4.295s4.136-1.75 4.136-4.295c0-2.386-1.75-4.136-4.136-4.136s-4.136 1.75-4.136 4.136zm23.385 0v.636h-9.067c.318 2.387 1.909 3.659 3.977 3.659 1.432 0 2.545-.477 3.659-1.431l.954 1.272c-1.261 1.147-2.909 1.772-4.613 1.75-3.341 0-5.727-2.386-5.727-5.886s2.386-5.886 5.568-5.886c3.022 0 5.249 2.386 5.249 5.886zm-9.067-.795h7.318c-.16-2.069-1.591-3.5-3.5-3.5-2.228 0-3.5 1.431-3.818 3.5zm20.044-2.387c-.795-.477-2.227-1.113-3.659-1.113-1.59 0-2.704.636-2.704 1.75 0 .954.795 1.431 2.227 1.59l1.273.16c2.386.318 3.818 1.272 3.818 3.181 0 2.227-1.909 3.5-4.932 3.5-1.432 0-3.341-.318-4.772-1.432l.795-1.272c.796.636 2.068 1.272 3.977 1.272s3.182-.636 3.182-1.75c0-.954-.795-1.431-2.386-1.59l-1.273-.16c-2.545-.318-3.659-1.431-3.659-3.181 0-2.068 1.75-3.5 4.454-3.5 1.75 0 3.341.477 4.455 1.273l-.796 1.272zm19.409-.795v-7.636h1.75v17.181h-1.75v-1.75c-.955 1.114-2.227 1.909-4.136 1.909-3.182 0-5.728-2.545-5.728-5.886s2.546-5.886 5.728-5.886c1.909.159 3.181.954 4.136 2.068zm-7.955 3.977c0 2.386 1.591 4.295 3.978 4.295s3.977-1.75 3.977-4.295c0-2.386-1.75-4.136-3.977-4.136-2.387 0-3.978 1.909-3.978 4.136zm24.977 0c0 3.341-2.546 5.886-5.886 5.886s-5.886-2.545-5.886-5.886 2.545-5.886 5.886-5.886 5.886 2.545 5.886 5.886zm-10.182 0c0 2.386 1.75 4.295 4.137 4.295s4.136-1.75 4.136-4.295c0-2.386-1.75-4.136-4.136-4.136-2.228 0-4.137 1.75-4.137 4.136zm25.931 3.818l3.341-9.386h1.909l-4.136 11.295h-2.068l-3.341-9.386-3.341 9.386h-2.068l-4.136-11.295h1.909l3.341 9.386 3.34-9.386h2.069l3.181 9.386zm18.136-5.091v7h-1.75v-6.363c0-2.228-1.273-3.341-3.182-3.341s-3.5 1.273-3.5 3.5v6.363h-1.749v-11.295h1.749v1.591c.443-.595 1.019-1.077 1.682-1.409s1.395-.503 2.137-.5c2.704-.159 4.613 1.75 4.613 4.454zm6.204 3.977l-1.272 6.046h-1.591l.795-6.046h2.068zm20.681 3.023h-1.75v-1.75c-.954 1.114-2.227 1.909-4.136 1.909-3.181 0-5.727-2.545-5.727-5.886s2.546-5.886 5.727-5.886c1.909 0 3.182.795 4.136 1.909v-1.75h1.75v11.454zm-9.704-5.727c0 2.386 1.591 4.295 3.977 4.295s3.977-1.75 3.977-4.295c0-2.386-1.75-4.136-3.977-4.136-2.386 0-3.977 1.909-3.977 4.136zm25.454 0c0 3.341-2.546 5.886-5.727 5.886-1.909 0-3.182-.795-4.136-1.909v6.523h-1.75v-16.068h1.75v1.75c.954-1.114 2.227-1.909 4.136-1.909 3.341-.159 5.727 2.386 5.727 5.727zm-9.863 0c0 2.386 1.59 4.295 3.977 4.295s3.977-1.909 3.977-4.295-1.591-4.136-3.977-4.136c-2.228 0-3.977 1.75-3.977 4.136zm24.817 0c0 3.341-2.546 5.886-5.727 5.886-1.909 0-3.182-.795-4.137-1.909v6.523h-1.749v-16.068h1.749v1.75c.955-1.114 2.228-1.909 4.137-1.909 3.181-.159 5.727 2.386 5.727 5.727zm-9.864 0c0 2.386 1.591 4.295 3.978 4.295s3.977-1.909 3.977-4.295-1.591-4.136-3.977-4.136-3.978 1.75-3.978 4.136zm20.682-3.182c-.796-.477-2.228-1.113-3.659-1.113-1.591 0-2.705.636-2.705 1.75 0 .954.796 1.431 2.227 1.59l1.273.16c2.386.318 3.818 1.272 3.818 3.181 0 2.227-1.909 3.5-4.932 3.5-1.431 0-3.34-.318-4.772-1.432l.795-1.272c.796.636 2.068 1.272 3.977 1.272s3.182-.636 3.182-1.75c0-.954-.795-1.431-2.386-1.59l-1.273-.16c-2.545-.318-3.659-1.431-3.659-3.181 0-2.068 1.75-3.5 4.455-3.5 1.75 0 3.34.477 4.454 1.273l-.795 1.272zm17.817-.795h-4.454v9.704h-1.75v-9.704h-2.546v-1.591h2.546v-1.909c0-2.386 1.113-4.136 3.818-4.136 1.273 0 2.227.318 3.022.795l-.636 1.432c-.636-.318-1.432-.636-2.386-.636-1.432 0-2.068.954-2.068 2.545v1.909h4.454v1.591zm13.045 9.704h-1.75v-1.75c-.954 1.114-2.227 1.909-4.136 1.909-3.182 0-5.727-2.545-5.727-5.886s2.545-5.886 5.727-5.886c1.909 0 3.182.795 4.136 1.909v-1.75h1.75v11.454zm-9.704-5.727c0 2.386 1.591 4.295 3.977 4.295s3.977-1.75 3.977-4.295c0-2.386-1.75-4.136-3.977-4.136-2.386 0-3.977 1.909-3.977 4.136zm16.067-9.704c0 .636-.636 1.272-1.272 1.272-.796 0-1.273-.477-1.273-1.272s.477-1.273 1.273-1.273c.795.159 1.272.636 1.272 1.273zm-.318 15.431h-1.75v-11.295h1.75v11.295zm5.886 0h-1.749v-17.181h1.749v17.181zm21.636-5.727c0 3.341-2.545 5.886-5.886 5.886s-5.886-2.545-5.886-5.886 2.545-5.886 5.886-5.886 5.886 2.545 5.886 5.886zm-10.022 0c0 2.386 1.75 4.295 4.136 4.295s4.136-1.75 4.136-4.295c0-2.386-1.75-4.136-4.136-4.136s-4.136 1.75-4.136 4.136zm18.294 5.727h-2.068l-4.772-11.295h1.909l3.977 9.545 3.977-9.545h1.909l-4.932 11.295zm17.182-5.727v.636h-9.068c.318 2.387 1.909 3.659 3.977 3.659 1.432 0 2.545-.477 3.659-1.431l.954 1.272c-1.26 1.147-2.909 1.772-4.613 1.75-3.341 0-5.727-2.386-5.727-5.886s2.386-5.886 5.568-5.886c3.022 0 5.25 2.386 5.25 5.886zm-9.068-.795h7.318c-.159-2.069-1.591-3.5-3.5-3.5-2.227 0-3.5 1.431-3.818 3.5zm19.567-4.614l-.477 1.75c-.477-.318-1.273-.477-1.909-.477-1.75 0-3.023 1.432-3.023 3.5v6.363h-1.75v-11.295h1.75v1.591c.796-1.114 1.909-1.75 3.341-1.75.796-.159 1.591 0 2.068.318zm16.386 1.432h-4.932v5.727c0 1.75.955 2.545 2.228 2.545a4.29 4.29 0 0 0 2.386-.795l.795 1.273c-.795.636-1.909 1.113-3.341 1.113-2.386 0-3.818-1.273-3.818-4.136v-5.727h-2.545v-1.591h2.545v-3.659h1.75v3.659h4.932v1.591zm14.159 3.977c0 3.341-2.546 5.886-5.887 5.886s-5.886-2.545-5.886-5.886 2.546-5.886 5.886-5.886 5.887 2.545 5.887 5.886zm-10.182 0c0 2.386 1.75 4.295 4.136 4.295s4.137-1.75 4.137-4.295c0-2.386-1.75-4.136-4.137-4.136s-4.136 1.75-4.136 4.136zm27.363-3.977h-4.932v5.727c0 1.75.955 2.545 2.227 2.545.796 0 1.75-.318 2.387-.795l.795 1.273c-.795.636-1.909 1.113-3.341 1.113-2.386 0-3.818-1.273-3.818-4.136v-5.727h-2.545v-1.591h2.545v-3.659h1.75v3.659h4.932v1.591zm4.772 0c.955-1.273 2.387-1.75 3.818-1.75 2.864 0 4.773 1.75 4.773 4.454v7h-1.75v-6.363c0-2.228-1.273-3.341-3.182-3.341s-3.5 1.273-3.5 3.5v6.363h-1.75v-17.181h1.75v7.318h-.159zm22.749 3.977v.636h-9.067c.318 2.387 1.909 3.659 3.977 3.659 1.432 0 2.545-.477 3.659-1.431l.954 1.272c-1.261 1.147-2.909 1.772-4.613 1.75-3.341 0-5.727-2.386-5.727-5.886s2.386-5.886 5.568-5.886c2.863 0 5.09 2.386 5.249 5.886zm-9.226-.795h7.317c-.159-2.069-1.59-3.5-3.499-3.5-2.069 0-3.5 1.431-3.818 3.5zm29.908.795c0 3.341-2.546 5.886-5.887 5.886s-5.886-2.545-5.886-5.886 2.546-5.886 5.886-5.886 5.887 2.545 5.887 5.886zm-10.182 0c0 2.386 1.75 4.295 4.136 4.295s4.137-1.75 4.137-4.295c0-2.386-1.75-4.136-4.137-4.136-2.227 0-4.136 1.75-4.136 4.136zm20.999-3.977h-4.931v5.727c0 1.75.954 2.545 2.227 2.545a4.29 4.29 0 0 0 2.386-.795l.796 1.273c-.796.636-1.909 1.113-3.341 1.113-2.386 0-3.818-1.273-3.818-4.136v-5.727h-2.546v-1.591h2.546v-3.659h1.75v3.659h4.931v1.591zm4.932 0c.955-1.273 2.386-1.75 3.818-1.75 2.864 0 4.773 1.75 4.773 4.454v7h-1.75v-6.363c0-2.228-1.273-3.341-3.182-3.341s-3.5 1.273-3.5 3.5v6.363h-1.75v-17.181h1.75v7.318h-.159zm22.59 3.977v.636h-9.068c.318 2.387 1.909 3.659 3.977 3.659 1.432 0 2.546-.477 3.659-1.431l.955 1.272c-1.261 1.147-2.91 1.772-4.614 1.75-3.34 0-5.727-2.386-5.727-5.886s2.387-5.886 5.568-5.886c3.023 0 5.25 2.386 5.25 5.886zm-9.068-.795h7.318c-.159-2.069-1.591-3.5-3.5-3.5-2.227 0-3.5 1.431-3.818 3.5zm19.568-4.614l-.478 1.75c-.477-.318-1.272-.477-1.909-.477-1.75 0-3.022 1.432-3.022 3.5v6.363h-1.75v-11.295h1.75v1.591c.795-1.114 1.909-1.75 3.341-1.75.795-.159 1.431 0 2.068.318z"/></g><defs ><path id="B" d="M916.387 258.264c2.636 0 4.773-2.136 4.773-4.772s-2.137-4.773-4.773-4.773-4.772 2.137-4.772 4.773 2.136 4.772 4.772 4.772z"/></defs></svg>