<svg xmlns="http://www.w3.org/2000/svg" xmlns:xlink="http://www.w3.org/1999/xlink" width="1000" height="392" xmlns:v="https://vecta.io/nano"><style><![CDATA[.B{fill-rule:nonzero}.C{fill:#fff}.D{stroke:#c22e4a}.E{fill:#000}.F{fill:#fafafa}.G{stroke-dasharray:2}.H{stroke-width:.75}.I{fill:#c72d48}.J{fill:#e8c4c5}.K{fill:#c22e4a}]]></style><defs><path id="A" d="M0 0h1000v391.304H0z"/><path d="M.44.619c-.877.961-.44 3.2 1.315 5.865 1.645 2.562 4.378 4.694 3.839 7.572C4.936 17.789 0 18.11 0 18.11a17.48 17.48 0 0 0 10.088-.105c5.375-2.134 6.142-6.08 9.327-8.745.988-.786 2.233-1.202 3.51-1.173h.438c.329 0 0-.32-.219-.64a2.29 2.29 0 0 1-.659-.426 9.91 9.91 0 0 1-.548-.853c-.341-.508-.913-.825-1.536-.853a7.55 7.55 0 0 0-3.329.585 7.07 7.07 0 0 1-4.568.37C9.816 5.457 4.7.001 1.791.001 1.266-.016.763.212.44.613" id="B"/><path d="M.427.639C-.428 1.664.001 4.054 1.708 6.898v.115c2.054 3.323 5.691 5.129 9.4 4.667.428-.454.962-1.252 1.817-2.275-1.182-2.123-2.743-3.979-4.595-5.463L5.98 2.12c-.213-.115-.321-.227-.534-.342A7.5 7.5 0 0 0 1.738.001C1.232-.015.748.222.429.641" id="C"/><linearGradient x1="-2303.5%" y1="2213.6%" x2="-2295.4%" y2="2213.6%" id="D"><stop stop-color="#91d3f2" offset="0%"/><stop stop-color="#6fb2de" offset="26.6%"/><stop stop-color="#5598ce" offset="52.1%"/><stop stop-color="#4b8fc8" offset="67.3%"/></linearGradient><path d="M11.053.219a31.28 31.28 0 0 1-5.159 4.903C4.229 6.555 2.163 7.395 0 7.519a15.8 15.8 0 0 0 9.683-.11 12.3 12.3 0 0 0 3.685-2.397c.486-.656.744-1.462.731-2.288A7.75 7.75 0 0 0 13.678 0a18.34 18.34 0 0 1-2.633.217" id="E"/><linearGradient x1="-2152.5%" y1="2606.6%" x2="-2144.9%" y2="2606.6%" id="F"><stop stop-color="#2c9ec7" offset="0%"/><stop stop-color="#2c63a5" offset="40.4%"/><stop stop-color="#395da1" offset="100%"/></linearGradient><path d="M0 2.344a13.68 13.68 0 0 0 2.35-.235c-.095-.235-.188-.588-.282-.816C1.969.833 1.81.396 1.598 0L0 2.35" id="G"/><linearGradient x1="-11946.7%" y1="11169.4%" x2="-11906.3%" y2="11169.4%" id="H"><stop stop-color="#4faac4" offset="0%"/><stop stop-color="#2f75b1" offset=".2%"/><stop stop-color="#356eac" offset="100%"/></linearGradient><path d="M4.809 4.7c1.213-1.349 2.794-2.395 4.591-3.037-1.693.752-3.623.959-5.466.588A15.77 15.77 0 0 1 0 0c1.846 1.353 3.465 2.936 4.809 4.7" id="I"/><linearGradient x1="-3444.3%" y1="4752.8%" x2="-3432.6%" y2="4752.8%" id="J"><stop stop-color="#4faac4" offset="0%"/><stop stop-color="#2f81b6" offset=".2%"/><stop stop-color="#3b5ea9" offset="100%"/></linearGradient><path d="M0 7.051a.95.95 0 0 0 .275-.23L0 7.051M.463 2.28a6.85 6.85 0 0 1 .461 2.593c.031.696-.198 1.381-.65 1.947C2.51 4.888 3.557 2.519 5.78.725l.682-.443C4.634 1.305 2.593 1.984.463 2.28M6.463.283L7.051 0a2.7 2.7 0 0 0-.588.283" id="K"/><linearGradient x1="-4935.6%" y1="3290.9%" x2="-4919%" y2="3290.9%" id="L"><stop stop-color="#4faac4" offset="0%"/><stop stop-color="#1e3773" offset=".2%"/><stop stop-color="#203370" offset="100%"/></linearGradient><path d="M4.763.38C2.877 1.09 1.226 2.321 0 3.934L.681 5.08c.114.229.226.573.34.796a24.94 24.94 0 0 0 6.691-2.407 5.07 5.07 0 0 1 2.383-.459.41.41 0 0 1 .339-.115c.34 0 0-.344-.339-.573a3.51 3.51 0 0 1-.681-.459c-.205-.294-.394-.601-.567-.915A1.63 1.63 0 0 0 7.26.03C7.098.01 6.935 0 6.772 0a7.11 7.11 0 0 0-2.005.374" id="M"/><linearGradient x1="-3163.2%" y1="4422.3%" x2="-3152.6%" y2="4422.3%" id="N"><stop stop-color="#4faac4" offset="0%"/><stop stop-color="#2c5a9a" offset=".2%"/><stop stop-color="#374580" offset="100%"/></linearGradient><path d="M5.763 7.616C5.084 11.424 0 11.751 0 11.751a12.1 12.1 0 0 0 6.214-2.394 32.69 32.69 0 0 0 5.537-4.896C7.846 4.8 4.052 3.098 1.81 0c1.694 2.611 4.51 4.678 3.955 7.616" id="O"/><linearGradient x1="-2774.3%" y1="2068.3%" x2="-2764.6%" y2="2068.3%" id="P"><stop stop-color="#38b1da" offset="0%"/><stop stop-color="#38b1da" offset="11.2%"/><stop stop-color="#326fb5" offset="100%"/></linearGradient><path id="Q" d="M19.976 53.379h225.568v51.958H19.976z"/><path id="R" d="M102.352 142.298c.025 2.032-1.179 3.877-3.049 4.674a5.02 5.02 0 0 1-5.484-1.038c-1.447-1.428-1.888-3.587-1.118-5.468s2.599-3.111 4.632-3.116c1.33-.037 2.618.47 3.565 1.404s1.473 2.214 1.455 3.544m-8.5 0c.031 1.914 1.604 3.442 3.519 3.418a3.48 3.48 0 0 0 3.44-3.497 3.48 3.48 0 0 0-3.48-3.46 3.42 3.42 0 0 0-3.48 3.539"/><path id="S" d="M51.49 83.648h-1.503v-1.416c-.836 1.063-2.131 1.662-3.481 1.608a4.96 4.96 0 0 1 0-9.904 4.24 4.24 0 0 1 3.481 1.61v-1.418h1.503v9.521h0 0zm-8.207-4.767a3.4 3.4 0 0 0 3.489 3.263 3.4 3.4 0 0 0 3.314-3.441 3.4 3.4 0 0 0-3.393-3.362 3.38 3.38 0 0 0-3.408 3.539"/><path id="T" d="M683.529 6.471h-3.232v3.257c0 1.114.59 1.518 1.336 1.518a3.48 3.48 0 0 0 1.676-.579l.883 1.878a4.98 4.98 0 0 1-2.955.939c-2.209 0-3.342-1.251-3.342-3.569V6.471h-1.721V4.335h1.721v-2.65h2.403v2.65h3.232v2.136h0 0z"/><path id="U" d="M760.163 48.773a1.04 1.04 0 0 1-.31.753 1.05 1.05 0 0 1-.757.302 1.06 1.06 0 0 1-1.016-1.059c0-.567.449-1.037 1.016-1.061a1.05 1.05 0 0 1 1.067 1.067m-.312 12.9h-1.503v-9.523h1.503v9.523z"/><path id="V" d="M782.504 61.672h-1.503v-1.418a4.21 4.21 0 0 1-3.481 1.608 4.96 4.96 0 0 1 0-9.904 4.24 4.24 0 0 1 3.481 1.61v-1.418h1.503v9.523h0 0zm-8.207-4.767a3.4 3.4 0 0 0 3.489 3.263 3.4 3.4 0 0 0 3.314-3.441 3.4 3.4 0 0 0-3.393-3.362 3.38 3.38 0 0 0-3.408 3.539"/><path id="W" d="M747.342 154.648a1.04 1.04 0 0 1-.31.753 1.05 1.05 0 0 1-.757.302 1.06 1.06 0 1 1 0-2.122 1.05 1.05 0 0 1 1.067 1.067m-.312 12.9h-1.503v-9.523h1.503v9.523h0 0z"/><path id="X" d="M0 0h77.399v16.581H0z"/><path id="Y" d="M60.173 1.985l-1.503.926a2.63 2.63 0 0 0-2.279-1.217c-1.544.068-2.76 1.339-2.76 2.883s1.216 2.816 2.76 2.883a2.7 2.7 0 0 0 2.3-1.21l1.435 1.033c-1.267 1.779-3.609 2.423-5.608 1.542a4.6 4.6 0 0 1-2.642-5.18c.455-2.133 2.346-3.654 4.528-3.642 1.522-.059 2.96.694 3.778 1.978"/><path id="Z" d="M272.369 158.42h39.329v39.318h-39.329z"/></defs><g fill="none" fill-rule="evenodd"><g stroke="#e8c4c5" class="G"><path d="M269.095 198.361h109.283m-109.283 9.283h109.283m-109.283 47.579h109.283"/><path d="M269.095 245.642h109.283"/></g><path d="M730.905 0h267.92v339.6h-267.92z" class="B F"/><mask id="a" class="C"><use xlink:href="#A"/></mask><g mask="url(#a)" stroke="#bababa" class="G"><path d="M731.905.547h267.548v339.145H731.905V.547z"/></g><path d="M0 1.175h267.92v390.129H0z" class="B F"/><mask id="b" class="C"><use xlink:href="#B" href="#A"/></mask><g mask="url(#b)" stroke="#bababa" class="G"><path d="M.547.547h267.548v390.209H.547V.547z"/></g><g class="B"><g fill="#e9e9e9"><path d="M752.105 51.704h225.568v51.958H752.105z"/><use xlink:href="#Q"/></g><path d="M37.056 68.8h24.115v6.872H37.056z" class="J"/><g class="I"><path d="M61.84 93.942H35.715V67.795H61.84v26.146h0 0zM37.726 91.93h22.273V69.638H37.726V91.93z"/><path d="M37.056 75.337h24.115v1.88H37.056v-1.88zm4.689-10.393h2.513v5.532h-2.513v-5.532zm11.555 0h2.513v5.532h-2.513v-5.532zm-3.193 23.767h-1.555v-6.026l-1.934.786v-1.573l3.497-1.412-.008 8.225h0z"/></g><g fill="#e9e9e9"><use xlink:href="#Q" y="67.044"/><use xlink:href="#Q" y="134.255"/><use xlink:href="#Q" y="201.299"/><use xlink:href="#Q" y="268.342"/><path d="M752.105 154.281h225.568v51.958H752.105v-51.958zm.838 104.419h219.874v51.958H752.943v-51.958h0z"/></g></g><mask id="c" class="C"><use xlink:href="#C" href="#A"/></mask><g mask="url(#c)" class="B E"><g transform="translate(30.191 23.929)"><path d="M9.334 3.747c-1.091-.7-2.358-1.08-3.654-1.095-1.445 0-2.467.563-2.467 1.546s1.114 1.234 2.66 1.491l.727.12c2.3.376 4.107 1.362 4.107 3.608 0 2.844-2.504 4.198-5.276 4.198a8.97 8.97 0 0 1-5.432-1.69l1.334-2.066a6.82 6.82 0 0 0 4.107 1.39c1.426 0 2.533-.563 2.533-1.555 0-.892-.939-1.225-2.734-1.503l-.821-.128C2.146 7.705.488 6.7.488 4.373.488 1.685 2.882.286 5.625.286a9.07 9.07 0 0 1 4.924 1.371l-1.216 2.09h0zm9.817 2.851h-3.232v3.263c0 1.114.59 1.518 1.334 1.518a3.48 3.48 0 0 0 1.676-.579l.883 1.878a4.98 4.98 0 0 1-2.955.939c-2.209 0-3.342-1.251-3.342-3.569v-3.45h-1.721V4.463h1.721v-2.65h2.403v2.65h3.232l.002 2.136h0zm8.22-2.181l-.359 2.384a3.89 3.89 0 0 0-1.454-.285c-.531-.032-1.048.174-1.411.561s-.535.917-.468 1.444v4.859h-2.405V4.465h2.33v.975a2.82 2.82 0 0 1 2.512-1.215 3.65 3.65 0 0 1 1.253.188m9.644 4.497a6.85 6.85 0 0 1-.047.81h-6.332a2.16 2.16 0 0 0 2.292 1.85 3.62 3.62 0 0 0 2.255-.856l1.407 1.546a5.41 5.41 0 0 1-3.803 1.352c-1.253.064-2.474-.409-3.358-1.299a4.41 4.41 0 0 1-1.274-3.366c-.093-1.241.345-2.463 1.204-3.363s2.061-1.394 3.305-1.358a4.32 4.32 0 0 1 4.349 4.686m-6.364-.828h3.945c-.107-1.009-.958-1.773-1.973-1.773s-1.866.764-1.973 1.773m17.108 5.302h-2.349V12.4a3.27 3.27 0 0 1-2.67 1.215c-1.205-.023-2.348-.538-3.164-1.425s-1.234-2.069-1.157-3.271c-.077-1.202.341-2.384 1.157-3.271a4.42 4.42 0 0 1 3.164-1.425 3.27 3.27 0 0 1 2.67 1.225v-.984h2.349v8.922h0zm-6.876-4.465a2.31 2.31 0 0 0 2.397 2.151 2.31 2.31 0 0 0 2.208-2.346c-.023-1.251-1.043-2.256-2.294-2.261a2.29 2.29 0 0 0-2.302 2.457M64.74 7.707v5.678h-2.39V8.477c0-1.288-.654-1.997-1.74-1.997a1.83 1.83 0 0 0-1.398.58 1.82 1.82 0 0 0-.481 1.435v4.883H56.32V8.477c0-1.288-.644-1.997-1.742-1.997a1.83 1.83 0 0 0-1.398.58 1.82 1.82 0 0 0-.481 1.435v4.883H50.29V4.465h2.339v1.041a2.99 2.99 0 0 1 2.63-1.288 3.38 3.38 0 0 1 2.946 1.529c.66-1.019 1.817-1.603 3.029-1.529a3.32 3.32 0 0 1 2.536.954c.67.664 1.027 1.582.981 2.524m5.182-6.148c-.008.843-.697 1.523-1.543 1.518a1.53 1.53 0 0 1-1.524-1.535A1.54 1.54 0 0 1 68.398 0a1.52 1.52 0 0 1 1.537 1.548m-.321 11.833h-2.405V4.465h2.407l-.002 8.916zm10.957-5.678v5.678h-2.403V8.477c0-1.288-.644-1.997-1.742-1.997a1.83 1.83 0 0 0-1.398.58 1.82 1.82 0 0 0-.481 1.435v4.883h-2.411V4.465h2.339v1.041a2.99 2.99 0 0 1 2.63-1.288c.934-.042 1.844.311 2.504.973a3.33 3.33 0 0 1 .968 2.506m8.767-2.237v-.994h2.352v8.178c.073 1.279-.419 2.526-1.345 3.409a4.37 4.37 0 0 1-3.47 1.183 7.06 7.06 0 0 1-3.904-1.076l.857-1.961a5.28 5.28 0 0 0 2.946.911 2.28 2.28 0 0 0 1.819-.593 2.27 2.27 0 0 0 .722-1.771v-.625c-.675.809-1.69 1.256-2.743 1.206-1.154-.04-2.242-.546-3.017-1.403a4.26 4.26 0 0 1-1.091-3.142c-.08-1.154.312-2.291 1.086-3.15s1.865-1.367 3.021-1.407a3.38 3.38 0 0 1 2.762 1.234m-4.402 3.323c.056 1.223 1.084 2.175 2.307 2.139s2.194-1.046 2.179-2.271-1.009-2.211-2.234-2.218c-.618-.012-1.213.235-1.641.681s-.651 1.05-.614 1.667M104.308.496a6.2 6.2 0 0 1 6.694 6.443 6.2 6.2 0 0 1-6.694 6.443h-5.311V.496h5.311 0 0zm-2.743 2.402v8.076h2.715a3.71 3.71 0 0 0 2.965-1.074c.78-.781 1.17-1.869 1.067-2.966a3.69 3.69 0 0 0-1.062-2.971 3.7 3.7 0 0 0-2.97-1.069l-2.715.004h0 0zm20.366 10.484h-2.349v-.986a3.27 3.27 0 0 1-2.67 1.215c-1.205-.023-2.348-.538-3.164-1.425s-1.234-2.069-1.157-3.271c-.077-1.202.341-2.384 1.157-3.271a4.42 4.42 0 0 1 3.164-1.425 3.27 3.27 0 0 1 2.67 1.225V4.46h2.349v8.922h0 0zm-6.876-4.465c.083 1.251 1.15 2.205 2.401 2.151a2.31 2.31 0 0 0 2.204-2.352c-.026-1.251-1.05-2.254-2.303-2.254a2.29 2.29 0 0 0-2.302 2.457m15.881-2.321h-3.232v3.263c0 1.114.59 1.518 1.334 1.518a3.48 3.48 0 0 0 1.676-.579l.883 1.878a4.98 4.98 0 0 1-2.955.939c-2.209 0-3.342-1.251-3.342-3.569v-3.45h-1.721V4.463h1.721v-2.65h2.403v2.65h3.232l.002 2.136h0zm10.796 6.785h-2.35v-.986a3.27 3.27 0 0 1-2.67 1.215c-1.205-.023-2.348-.538-3.164-1.425s-1.234-2.069-1.157-3.271c-.077-1.202.341-2.384 1.157-3.271a4.42 4.42 0 0 1 3.164-1.425 3.27 3.27 0 0 1 2.67 1.225v-.984h2.349l.002 8.922h0 0zm-6.876-4.465c.083 1.251 1.15 2.205 2.401 2.151a2.31 2.31 0 0 0 2.204-2.352c-.026-1.251-1.05-2.254-2.303-2.254a2.29 2.29 0 0 0-2.302 2.457"/></g></g><path d="M91.96 85.761h-9.704V71.68h9.617v1.518h-8.031v4.717h7.779v1.503h-7.779v4.817h8.117v1.525zm7.479.021h-1.724l-3.98-9.543h1.595l3.261 8.016 3.261-8.016h1.557l-3.969 9.543h0z" class="B E"/><mask id="d" class="C"><use xlink:href="#D" href="#A"/></mask><g class="B E"><path d="M114.466 80.742c.001.188-.009.376-.03.563h-7.635c.034.86.408 1.67 1.041 2.254a3.23 3.23 0 0 0 2.33.855c1.122 0 2.2-.43 3.017-1.198l.804 1.026c-1.047 1.008-2.459 1.546-3.912 1.489a4.96 4.96 0 0 1-.09-9.904c1.261.016 2.458.554 3.307 1.486s1.272 2.175 1.168 3.431m-7.645-.654h6.116a2.99 2.99 0 0 0-2.978-2.926c-1.661-.021-3.042 1.27-3.138 2.926m19.109-.449v5.903h-1.503v-5.409c.093-.764-.162-1.53-.694-2.087s-1.285-.846-2.053-.789a2.8 2.8 0 0 0-2.918 2.917v5.37h-1.503v-9.523h1.488v1.358c.742-1.022 1.948-1.602 3.209-1.548 1.048-.084 2.083.284 2.842 1.012a3.68 3.68 0 0 1 1.132 2.795m9.732-2.269h-4.115v4.806c0 1.488.785 2.143 1.892 2.143a3.46 3.46 0 0 0 2.001-.674l.705 1.127c-.81.616-1.801.946-2.818.939-2.052 0-3.269-1.127-3.269-3.52v-4.821h-2.082v-1.358h2.082v-3.026h1.503v3.026h4.115l-.013 1.358h0 0zm9.035.665c-.936-.58-2.015-.89-3.117-.894-1.358 0-2.255.563-2.255 1.503 0 .795.693 1.187 1.941 1.337l1.127.141c2.022.261 3.194 1.097 3.194 2.656 0 1.809-1.629 2.945-4.195 2.945a6.69 6.69 0 0 1-3.972-1.217l.693-1.127a5.01 5.01 0 0 0 3.299 1.037c1.61 0 2.63-.533 2.63-1.538 0-.764-.644-1.227-1.992-1.386l-1.127-.131c-2.144-.261-3.149-1.217-3.149-2.63 0-1.801 1.518-2.887 3.803-2.887a6.97 6.97 0 0 1 3.782 1.037l-.663 1.155h0 0z" mask="url(#d)"/><path d="M89.739 340.567h-4.885v12.549h-1.61v-12.549h-4.885v-1.529h11.386z"/></g><mask id="e" class="C"><use xlink:href="#E" href="#A"/></mask><g mask="url(#e)" class="B E"><g transform="translate(77.057 206.05)"><path d="M19.573 137.674l-.363 1.478c-.513-.253-1.078-.382-1.65-.376a2.64 2.64 0 0 0-2.555 2.966v5.329h-1.503v-9.536h1.492v1.337a3.33 3.33 0 0 1 2.818-1.529 4.08 4.08 0 0 1 1.751.321m10.899 9.399H28.96v-1.416c-.836 1.063-2.131 1.662-3.481 1.608a4.96 4.96 0 0 1 0-9.904 4.24 4.24 0 0 1 3.481 1.61v-1.426h1.503v9.528h0 0zm-8.207-4.767a3.4 3.4 0 0 0 3.489 3.263 3.4 3.4 0 0 0 3.314-3.441 3.4 3.4 0 0 0-3.393-3.362 3.38 3.38 0 0 0-3.408 3.539m20.387-1.131v5.903h-1.503v-5.411c.093-.764-.162-1.53-.694-2.087s-1.285-.846-2.053-.789a2.8 2.8 0 0 0-2.918 2.917v5.37h-1.503v-9.532h1.488v1.358c.742-1.022 1.948-1.602 3.209-1.548 1.049-.083 2.083.286 2.842 1.014a3.68 3.68 0 0 1 1.13 2.797m9.809-1.593a5.96 5.96 0 0 0-3.117-.894c-1.358 0-2.255.563-2.255 1.503 0 .795.693 1.187 1.941 1.337l1.127.141c2.022.263 3.194 1.095 3.194 2.654 0 1.809-1.629 2.947-4.195 2.947a6.69 6.69 0 0 1-3.972-1.217l.695-1.127c.942.725 2.112 1.092 3.299 1.035 1.61 0 2.63-.532 2.63-1.538 0-.764-.644-1.227-1.992-1.388l-1.127-.13c-2.144-.261-3.149-1.215-3.149-2.63 0-1.801 1.518-2.887 3.803-2.887a6.97 6.97 0 0 1 3.782 1.037l-.665 1.157h0 0zm12.529 7.498h-1.503v-1.416c-.836 1.063-2.131 1.662-3.481 1.608a4.96 4.96 0 0 1 0-9.904 4.24 4.24 0 0 1 3.481 1.61v-1.426h1.503v9.528h0 0zm-8.207-4.767a3.4 3.4 0 0 0 3.489 3.263 3.4 3.4 0 0 0 3.314-3.441 3.4 3.4 0 0 0-3.393-3.362 3.38 3.38 0 0 0-3.408 3.539m19.452-3.443l-.964 1.016c-.684-.706-1.623-1.104-2.606-1.106a3.55 3.55 0 0 0 0 7.09 3.81 3.81 0 0 0 2.63-1.116l.939 1.026a4.62 4.62 0 0 1-3.53 1.503 4.96 4.96 0 0 1-4.859-4.953 4.96 4.96 0 0 1 4.859-4.953 4.6 4.6 0 0 1 3.53 1.503m9.157.041H81.27v4.806c0 1.488.785 2.143 1.892 2.143a3.46 3.46 0 0 0 2.001-.674l.705 1.138c-.81.616-1.801.946-2.818.939-2.052 0-3.269-1.127-3.269-3.52v-4.837h-2.082v-1.358h2.082v-3.026h1.503v3.026h4.115l-.013 1.362h0 0zm4.46-4.735a1.04 1.04 0 0 1-.31.751 1.05 1.05 0 0 1-.755.302 1.06 1.06 0 0 1-1.06-1.059c0-.584.475-1.061 1.06-1.061a1.05 1.05 0 0 1 1.065 1.067m-.312 12.9H88.03v-9.523h1.503v9.523h0z"/><use xlink:href="#R"/><path d="M113.811 141.164v5.903h-1.503v-5.411c.093-.764-.162-1.53-.694-2.087s-1.285-.846-2.053-.789a2.8 2.8 0 0 0-2.918 2.917v5.37h-1.503v-9.532h1.488v1.358c.742-1.022 1.948-1.602 3.209-1.548a3.69 3.69 0 0 1 2.843 1.014 3.68 3.68 0 0 1 1.129 2.797m9.798-1.593a5.96 5.96 0 0 0-3.117-.894c-1.358 0-2.255.563-2.255 1.503 0 .795.693 1.187 1.941 1.337l1.127.141c2.022.263 3.194 1.095 3.194 2.654 0 1.809-1.629 2.947-4.195 2.947a6.69 6.69 0 0 1-3.972-1.217l.695-1.127c.942.725 2.112 1.092 3.299 1.035 1.61 0 2.63-.532 2.63-1.538 0-.764-.644-1.227-1.992-1.388l-1.127-.13c-2.144-.261-3.149-1.215-3.149-2.63 0-1.801 1.518-2.887 3.803-2.887a6.97 6.97 0 0 1 3.782 1.037l-.665 1.157h0 0zM10.901 72.234a7.44 7.44 0 0 0-4.244-1.315c-2.123 0-3.639.954-3.639 2.543 0 1.315 1.056 2.021 3.248 2.284l1.338.162c2.324.282 4.396 1.266 4.396 3.7 0 2.785-2.535 4.234-5.571 4.234a9.23 9.23 0 0 1-5.535-1.811l.885-1.287a7.72 7.72 0 0 0 4.637 1.568c2.183 0 3.904-.885 3.904-2.566 0-1.367-1.178-2.051-3.41-2.303l-1.419-.162c-2.405-.272-4.154-1.386-4.154-3.719 0-2.675 2.384-4.173 5.332-4.173a8.55 8.55 0 0 1 5.06 1.538l-.829 1.305h0 0z"/><use xlink:href="#R" x="-77.98" y="-63.423"/><path d="M34.895 75.432l-.968 1.016c-.684-.706-1.623-1.104-2.606-1.106a3.55 3.55 0 0 0 0 7.09c.988-.017 1.931-.417 2.63-1.116l.939 1.026c-.904.989-2.193 1.537-3.532 1.503a4.96 4.96 0 0 1-4.859-4.953 4.96 4.96 0 0 1 4.859-4.951c1.34-.037 2.63.511 3.532 1.503m4.383-4.696a1.04 1.04 0 0 1-.31.753 1.05 1.05 0 0 1-.757.302 1.06 1.06 0 0 1-1.016-1.061 1.06 1.06 0 0 1 1.016-1.059 1.05 1.05 0 0 1 1.067 1.067m-.314 12.9h-1.503v-9.523h1.503v9.523z"/><use xlink:href="#S"/><path d="M55.002 69.166h1.879v14.479h-1.879V69.166zm15.966.404c4.597 0 7.515 2.744 7.515 7.038s-2.918 7.04-7.515 7.04h-5.3V69.561l5.3.009zm-3.681 1.529v11.02h3.681c2.041.11 3.975-.915 5.03-2.665a5.52 5.52 0 0 0 .004-5.691c-1.055-1.751-2.992-2.775-5.033-2.663h-3.681 0 0zm23.215 12.547h-1.503V82.23c-.836 1.063-2.131 1.662-3.481 1.608a4.96 4.96 0 0 1 0-9.904 4.24 4.24 0 0 1 3.481 1.61v-1.418h1.503v9.521h0 0zm-8.207-4.767a3.4 3.4 0 0 0 3.489 3.263 3.4 3.4 0 0 0 3.314-3.441 3.4 3.4 0 0 0-3.393-3.362 3.38 3.38 0 0 0-3.408 3.539m18.174-3.395h-4.115v4.806c0 1.488.785 2.143 1.892 2.143a3.46 3.46 0 0 0 2.001-.674l.705 1.138c-.81.616-1.801.946-2.818.939-2.052 0-3.269-1.127-3.269-3.52v-4.837h-2.08V74.12h2.082v-3.028h1.503v3.028h4.115l-.015 1.362h0 0zm11.632 8.163H110.6V82.23c-.836 1.063-2.131 1.662-3.481 1.608a4.96 4.96 0 0 1 0-9.904 4.24 4.24 0 0 1 3.481 1.61v-1.418h1.503v9.521h0 0zm-8.207-4.767a3.4 3.4 0 0 0 3.489 3.263 3.4 3.4 0 0 0 3.314-3.441 3.4 3.4 0 0 0-3.393-3.362 3.38 3.38 0 0 0-3.408 3.539M10.008 2.845A7.44 7.44 0 0 0 5.764 1.53c-2.121 0-3.641.954-3.641 2.543 0 1.315 1.056 2.021 3.248 2.284l1.338.162c2.324.282 4.396 1.266 4.396 3.7 0 2.785-2.535 4.234-5.573 4.234A9.24 9.24 0 0 1 0 12.642l.885-1.287c1.334 1.012 2.963 1.563 4.637 1.568 2.183 0 3.904-.885 3.904-2.566 0-1.367-1.178-2.051-3.41-2.303l-1.419-.162C2.193 7.622.443 6.508.443 4.175.443 1.5 2.826.002 5.774.002a8.55 8.55 0 0 1 5.06 1.538l-.825 1.305h0zm12.646 6.619c.001.188-.009.376-.03.563h-7.635a3.24 3.24 0 0 0 1.041 2.254 3.23 3.23 0 0 0 2.33.855c1.122-.002 2.2-.43 3.017-1.198l.804 1.027c-1.048 1.007-2.459 1.544-3.912 1.488a4.96 4.96 0 0 1-.09-9.904 4.55 4.55 0 0 1 3.306 1.485c.848.931 1.272 2.174 1.169 3.43m-7.645-.654h6.116a2.99 2.99 0 0 0-2.978-2.926c-1.661-.021-3.042 1.27-3.138 2.926m19.104-.455v5.903H32.61v-5.41c.093-.764-.162-1.53-.694-2.087s-1.285-.846-2.053-.789a2.8 2.8 0 0 0-2.918 2.917v5.37h-1.503V4.737h1.49v1.358a3.76 3.76 0 0 1 3.209-1.548c1.049-.083 2.083.286 2.842 1.014a3.68 3.68 0 0 1 1.13 2.797m9.79-1.6a5.96 5.96 0 0 0-3.117-.894c-1.358 0-2.255.563-2.255 1.503 0 .795.693 1.187 1.941 1.337l1.127.141c2.022.263 3.194 1.095 3.194 2.654 0 1.809-1.629 2.947-4.195 2.947a6.69 6.69 0 0 1-3.972-1.217l.693-1.127c.942.725 2.112 1.092 3.299 1.035 1.61 0 2.63-.533 2.63-1.538 0-.764-.644-1.227-1.992-1.388l-1.127-.13c-2.144-.261-3.149-1.215-3.149-2.63 0-1.801 1.518-2.887 3.803-2.887a6.97 6.97 0 0 1 3.782 1.037l-.663 1.157h0 0z"/><use xlink:href="#R" x="-45.612" y="-132.806"/><path d="M65.593 4.866l-.363 1.478c-.513-.253-1.078-.382-1.65-.376a2.64 2.64 0 0 0-2.555 2.966v5.329h-1.503V4.74h1.488v1.337a3.33 3.33 0 0 1 2.818-1.529 4.08 4.08 0 0 1 1.751.321M78.577.189c4.597 0 7.515 2.744 7.515 7.038s-2.918 7.038-7.515 7.038h-5.3V.189h5.3zm-3.681 1.529v11.02h3.681c2.041.11 3.975-.915 5.03-2.665a5.52 5.52 0 0 0 .004-5.691c-1.055-1.751-2.992-2.775-5.033-2.663h-3.681 0 0zm23.216 12.539H96.61v-1.412a4.21 4.21 0 0 1-3.481 1.608 4.96 4.96 0 0 1 0-9.904 4.24 4.24 0 0 1 3.481 1.61V4.74h1.503v9.517h0 0zM89.905 9.49a3.4 3.4 0 0 0 3.489 3.263 3.4 3.4 0 0 0 3.314-3.441 3.4 3.4 0 0 0-3.393-3.362 3.38 3.38 0 0 0-3.408 3.539m18.183-3.396h-4.115v4.806c0 1.488.785 2.143 1.892 2.143a3.46 3.46 0 0 0 2.001-.676l.705 1.138c-.81.616-1.801.946-2.818.939-2.052 0-3.269-1.127-3.269-3.52V6.087h-2.089V4.731h2.082V1.707h1.503v3.024h4.115l-.006 1.362h0 0zm11.622 8.163h-1.503v-1.412a4.21 4.21 0 0 1-3.481 1.608 4.96 4.96 0 0 1 0-9.904 4.24 4.24 0 0 1 3.481 1.61V4.739h1.503v9.517h0 0zm-8.207-4.767a3.4 3.4 0 0 0 3.489 3.263 3.4 3.4 0 0 0 3.314-3.441 3.4 3.4 0 0 0-3.393-3.362 3.38 3.38 0 0 0-3.408 3.539"/></g></g><path d="M90.482 153.937h-9.401v-14.101h1.558v12.561h7.841z" class="B E"/><mask id="f" class="C"><use xlink:href="#F" href="#A"/></mask><g mask="url(#f)"><g transform="translate(31.457 22.192)"><g transform="translate(60.49)" class="B E"><path d="M10.031 127.135c.027 2.034-1.177 3.882-3.049 4.68a5.02 5.02 0 0 1-5.488-1.042c-1.448-1.428-1.891-3.589-1.12-5.471s2.604-3.113 4.639-3.114c1.33-.037 2.618.47 3.565 1.404s1.473 2.214 1.455 3.544m-8.5 0a3.48 3.48 0 1 0 6.961-.077c-.011-1.914-1.565-3.462-3.481-3.462a3.42 3.42 0 0 0-3.481 3.539m18.681-3.328v-1.427h1.503v8.867c.075 1.339-.44 2.645-1.409 3.574s-2.296 1.387-3.632 1.253a6.49 6.49 0 0 1-4.013-1.277l.665-1.206c.964.727 2.14 1.119 3.348 1.116.94.096 1.874-.227 2.554-.881a3.21 3.21 0 0 0 .978-2.518v-.975a4 4 0 0 1-3.401 1.619c-2.698 0-4.885-2.186-4.885-4.883s2.187-4.883 4.885-4.883c1.332-.054 2.604.55 3.401 1.619m-6.589 3.257c.06 1.841 1.591 3.29 3.433 3.251s3.307-1.555 3.288-3.396-1.519-3.324-3.361-3.325c-.914-.014-1.794.351-2.429 1.009a3.32 3.32 0 0 0-.93 2.461m18.012-2.66c-.936-.58-2.015-.89-3.117-.894-1.358 0-2.255.563-2.255 1.503 0 .795.693 1.187 1.941 1.337l1.127.141c2.022.261 3.194 1.097 3.194 2.656 0 1.809-1.629 2.945-4.195 2.945a6.69 6.69 0 0 1-3.972-1.217l.695-1.127a5.01 5.01 0 0 0 3.299 1.037c1.61 0 2.63-.533 2.63-1.538 0-.764-.644-1.227-1.992-1.386l-1.127-.131c-2.144-.261-3.149-1.217-3.149-2.63 0-1.801 1.518-2.887 3.803-2.887a6.97 6.97 0 0 1 3.782 1.037l-.665 1.155h0 0zM673.713 3.619c-1.091-.7-2.358-1.08-3.654-1.095-1.445 0-2.467.563-2.467 1.546s1.114 1.234 2.66 1.491l.727.12c2.3.376 4.107 1.362 4.107 3.608 0 2.844-2.504 4.198-5.276 4.198-1.946.041-3.853-.552-5.432-1.69l1.334-2.066c1.182.898 2.623 1.386 4.107 1.39 1.426 0 2.533-.563 2.533-1.555 0-.892-.939-1.225-2.734-1.503l-.821-.128c-2.273-.359-3.93-1.364-3.93-3.691 0-2.688 2.394-4.087 5.137-4.087a9.07 9.07 0 0 1 4.926 1.371l-1.217 2.09h0 0z"/><use xlink:href="#T"/><path d="M694.324 13.255h-2.349v-.986a3.27 3.27 0 0 1-2.67 1.215c-1.205-.023-2.348-.538-3.164-1.425s-1.234-2.069-1.157-3.271c-.077-1.202.341-2.384 1.157-3.271s1.959-1.401 3.164-1.425a3.27 3.27 0 0 1 2.67 1.225v-.984h2.349v8.922h0 0zm-6.876-4.465c.083 1.251 1.15 2.205 2.401 2.151a2.31 2.31 0 0 0 2.204-2.352c-.026-1.251-1.05-2.254-2.303-2.254a2.29 2.29 0 0 0-2.302 2.457"/><use xlink:href="#T" x="19.8"/><path d="M713.638 8.781c0 .271-.016.541-.047.81h-6.324a2.16 2.16 0 0 0 2.292 1.85c.827-.019 1.623-.321 2.255-.856l1.407 1.546a5.41 5.41 0 0 1-3.803 1.352c-1.253.064-2.474-.409-3.358-1.299s-1.347-2.114-1.274-3.366c-.093-1.241.345-2.463 1.204-3.363s2.061-1.394 3.305-1.358a4.32 4.32 0 0 1 4.336 4.684m-6.364-.828h3.945c-.107-1.009-.958-1.773-1.973-1.773s-1.866.764-1.973 1.773M715.607 0h2.403v13.253h-2.403V0zm13.227 8.781c0 .271-.016.541-.047.81h-6.324a2.16 2.16 0 0 0 2.292 1.85c.827-.019 1.623-.321 2.255-.856l1.409 1.546a5.41 5.41 0 0 1-3.803 1.352c-1.253.064-2.474-.409-3.358-1.299s-1.347-2.114-1.274-3.366c-.093-1.241.345-2.463 1.204-3.363s2.061-1.394 3.305-1.358a4.32 4.32 0 0 1 4.336 4.684m-6.364-.828h3.945c-.107-1.009-.958-1.773-1.973-1.773s-1.866.764-1.973 1.773m14.67-1.129a7.17 7.17 0 0 0-2.845-.727c-.911 0-1.372.321-1.372.81s.644.644 1.456.764l.791.12c1.933.295 3.006 1.159 3.006 2.669 0 1.841-1.503 3.028-4.096 3.028a7.13 7.13 0 0 1-3.968-1.048l.939-1.824c.898.599 1.96.905 3.038.875 1.114 0 1.648-.314 1.648-.838 0-.432-.451-.671-1.482-.817l-.727-.101c-2.067-.285-3.085-1.187-3.085-2.707 0-1.831 1.417-2.919 3.758-2.919 1.293-.023 2.572.268 3.728.847l-.789 1.867h0 0zm9.278 0a7.17 7.17 0 0 0-2.845-.727c-.911 0-1.372.321-1.372.81s.644.644 1.454.764l.791.12c1.933.295 3.006 1.159 3.006 2.669 0 1.841-1.503 3.028-4.096 3.028a7.13 7.13 0 0 1-3.968-1.048l.939-1.824c.898.599 1.96.905 3.038.875 1.114 0 1.648-.314 1.648-.838 0-.432-.451-.671-1.482-.817l-.727-.101c-2.067-.285-3.085-1.187-3.085-2.707 0-1.831 1.417-2.919 3.758-2.919 1.293-.023 2.573.268 3.729.847l-.789 1.867h0 0zm-20.259 54.851h-1.73l-1.599-3.922h-6.97l-1.589 3.922h-1.68l5.783-14.087h2.001l5.785 14.087zm-9.676-5.447h5.732l-2.865-7.036-2.867 7.036zm21.526.68a4.75 4.75 0 0 1-1.319 3.495c-.898.936-2.141 1.464-3.438 1.462a4.21 4.21 0 0 1-3.47-1.598v5.43h-1.503V52.15h1.503v1.407a4.21 4.21 0 0 1 3.47-1.598c1.296-.002 2.537.525 3.435 1.459a4.75 4.75 0 0 1 1.323 3.489m-8.327 0a3.4 3.4 0 0 0 3.493 3.251 3.4 3.4 0 0 0 3.297-3.45 3.4 3.4 0 0 0-3.408-3.34c-.927-.006-1.815.37-2.455 1.039a3.36 3.36 0 0 0-.927 2.499m20.851 0a4.75 4.75 0 0 1-1.319 3.495c-.898.936-2.141 1.464-3.438 1.462a4.21 4.21 0 0 1-3.47-1.598v5.43h-1.503V52.15h1.503v1.407a4.21 4.21 0 0 1 3.47-1.598c1.296-.002 2.537.525 3.435 1.459a4.75 4.75 0 0 1 1.323 3.489m-8.327 0a3.4 3.4 0 0 0 3.493 3.251 3.4 3.4 0 0 0 3.297-3.45 3.4 3.4 0 0 0-3.408-3.34c-.927-.006-1.815.37-2.455 1.039a3.36 3.36 0 0 0-.927 2.499m11.115-9.712h1.879v14.479h-1.879V47.193h0z"/><use xlink:href="#U"/><path d="M771.103 53.457l-.968 1.016c-.682-.706-1.622-1.105-2.604-1.106a3.55 3.55 0 0 0 0 7.09c.988-.017 1.931-.417 2.63-1.116l.939 1.026c-.904.989-2.193 1.537-3.532 1.503a4.96 4.96 0 0 1-4.859-4.951 4.96 4.96 0 0 1 4.859-4.951c1.34-.036 2.628.513 3.532 1.503"/><use xlink:href="#V"/><path d="M792.482 53.508h-4.115v4.806c0 1.488.785 2.143 1.892 2.143a3.46 3.46 0 0 0 2.001-.674l.705 1.127a4.6 4.6 0 0 1-2.818.939c-2.052 0-3.269-1.127-3.269-3.52v-4.821h-2.082V52.15h2.082v-3.026h1.503v3.026h4.115l-.013 1.358h0 0z"/><use xlink:href="#U" x="36.78"/><use xlink:href="#R" x="707.1" y="-85.393"/><path d="M820.911 55.771v5.903h-1.503v-5.409c.092-.762-.162-1.526-.692-2.081s-1.28-.846-2.046-.792a2.8 2.8 0 0 0-2.918 2.917v5.37h-1.503v-9.523h1.49v1.358c.742-1.022 1.948-1.602 3.209-1.548 1.049-.083 2.083.286 2.842 1.014a3.68 3.68 0 0 1 1.13 2.797m9.789-1.606c-.936-.58-2.015-.89-3.117-.894-1.358 0-2.255.563-2.255 1.503 0 .795.693 1.187 1.941 1.337l1.127.141c2.022.261 3.194 1.097 3.194 2.656 0 1.809-1.629 2.945-4.195 2.945a6.69 6.69 0 0 1-3.972-1.217l.695-1.127a5.01 5.01 0 0 0 3.299 1.037c1.61 0 2.63-.533 2.63-1.538 0-.764-.644-1.227-1.992-1.386l-1.127-.131c-2.144-.261-3.149-1.217-3.149-2.63 0-1.801 1.518-2.887 3.801-2.887a6.97 6.97 0 0 1 3.782 1.037l-.663 1.155h0 0zM706.852 167.548h-1.62v-12.269l-4.909 10.706h-1.698l-4.898-10.629v12.186h-1.62v-14.087h2.454l4.921 10.638 4.907-10.638h2.465l-.002 14.093z"/><use xlink:href="#V" x="-62.861" y="105.876"/><path d="M730.891 159.332l-.968 1.016c-.684-.706-1.623-1.104-2.606-1.106a3.55 3.55 0 0 0 0 7.09c.988-.017 1.931-.417 2.63-1.116l.939 1.026c-.904.989-2.193 1.537-3.532 1.503a4.96 4.96 0 0 1-4.859-4.951 4.96 4.96 0 0 1 4.859-4.951c1.34-.036 2.628.513 3.532 1.503m4.07.008c.749-1.001 1.944-1.569 3.194-1.518 1.049-.083 2.083.286 2.842 1.014a3.68 3.68 0 0 1 1.13 2.797v5.903h-1.503v-5.409c.093-.764-.162-1.53-.694-2.087s-1.285-.846-2.053-.789a2.8 2.8 0 0 0-2.918 2.917v5.37h-1.503v-14.487h1.503l.002 6.288h0z"/><use xlink:href="#W"/><path d="M759.218 161.644v5.903h-1.503v-5.409c.093-.764-.162-1.53-.694-2.087s-1.285-.846-2.053-.789a2.8 2.8 0 0 0-2.918 2.917v5.37h-1.503v-9.523h1.488v1.358a3.76 3.76 0 0 1 3.209-1.548c1.049-.084 2.084.285 2.843 1.013a3.68 3.68 0 0 1 1.13 2.798m11.882 1.103c0 .188-.01.376-.03.563h-7.634c.034.86.408 1.67 1.041 2.254a3.23 3.23 0 0 0 2.33.855c1.122-.002 2.2-.43 3.017-1.198l.804 1.026c-1.047 1.008-2.459 1.546-3.912 1.489a4.96 4.96 0 0 1-.09-9.904c1.261.016 2.458.554 3.307 1.486s1.272 2.175 1.168 3.431m-7.645-.654h6.116a2.99 2.99 0 0 0-2.978-2.926c-1.661-.021-3.042 1.27-3.138 2.926m25.837 5.449h-9.77v-14.087h1.62v12.549h8.148l.002 1.538zm10.604-4.797a4.72 4.72 0 0 1-.03.563h-7.634c.034.86.408 1.67 1.041 2.254a3.23 3.23 0 0 0 2.33.855c1.122-.002 2.2-.43 3.017-1.198l.804 1.026c-1.047 1.008-2.459 1.546-3.912 1.489a4.96 4.96 0 0 1-.09-9.904c1.261.016 2.458.554 3.307 1.486s1.272 2.175 1.168 3.431m-7.645-.654h6.116a2.99 2.99 0 0 0-2.978-2.926c-1.661-.021-3.042 1.27-3.138 2.926"/><use xlink:href="#V" x="29.193" y="105.876"/><path d="M821.275 158.155l-.363 1.478c-.513-.253-1.078-.382-1.65-.376a2.65 2.65 0 0 0-1.935.917 2.64 2.64 0 0 0-.62 2.049v5.33h-1.503v-9.523h1.488v1.337c.615-.959 1.679-1.536 2.818-1.529.6-.023 1.198.087 1.751.321m10.959 3.484v5.903h-1.503v-5.409c.093-.764-.162-1.529-.693-2.086s-1.284-.846-2.052-.79a2.8 2.8 0 0 0-2.918 2.917v5.37h-1.503v-9.523h1.488v1.358c.742-1.022 1.948-1.602 3.209-1.548 1.049-.083 2.083.286 2.842 1.014a3.68 3.68 0 0 1 1.13 2.797"/><use xlink:href="#W" x="90.104"/><path d="M849.316 161.644v5.903h-1.503v-5.409c.093-.764-.162-1.53-.694-2.087s-1.285-.846-2.053-.789a2.8 2.8 0 0 0-2.918 2.917v5.37h-1.503v-9.523h1.488v1.358c.742-1.022 1.948-1.602 3.209-1.548 1.049-.084 2.084.285 2.843 1.013a3.68 3.68 0 0 1 1.13 2.798m10.799-2.196v-1.427h1.503v8.867c.075 1.339-.44 2.645-1.409 3.574s-2.296 1.387-3.632 1.253c-1.443.033-2.855-.417-4.013-1.277l.663-1.206c.965.727 2.141 1.119 3.35 1.116.94.096 1.874-.227 2.554-.881a3.21 3.21 0 0 0 .978-2.518v-.975a4 4 0 0 1-3.401 1.619c-2.698 0-4.885-2.186-4.885-4.883s2.187-4.883 4.885-4.883a4.04 4.04 0 0 1 3.401 1.619m-6.589 3.257c.06 1.841 1.591 3.29 3.433 3.251s3.307-1.555 3.288-3.396-1.519-3.324-3.361-3.325c-.914-.014-1.794.351-2.429 1.009a3.32 3.32 0 0 0-.93 2.461m-152.719 91.559c4.597 0 7.515 2.744 7.515 7.04s-2.916 7.038-7.515 7.038h-5.3v-14.087l5.3.009h0zm-3.681 1.529v11.02h3.681c2.041.11 3.975-.915 5.03-2.665a5.52 5.52 0 0 0 .004-5.691c-1.055-1.751-2.992-2.775-5.033-2.663h-3.681 0 0zm23.209 12.541h-1.503v-1.416a4.21 4.21 0 0 1-3.481 1.608 4.96 4.96 0 0 1 0-9.904 4.24 4.24 0 0 1 3.481 1.61v-1.418h1.503v9.521h0 0zm-8.207-4.767a3.4 3.4 0 0 0 3.489 3.263 3.4 3.4 0 0 0 3.314-3.441 3.4 3.4 0 0 0-3.393-3.362 3.38 3.38 0 0 0-3.408 3.539m18.191-3.39h-4.115v4.806c0 1.488.785 2.143 1.892 2.143a3.46 3.46 0 0 0 2.001-.674l.705 1.138c-.81.616-1.801.946-2.818.939-2.052 0-3.269-1.127-3.269-3.52v-4.837h-2.089v-1.358h2.082v-3.028h1.503v3.028h4.115l-.006 1.362z"/><use xlink:href="#S" x="690.448" y="184.687"/><path d="M752.708 262.681v5.661h-1.612v-14.087h5.321c3.158 0 4.979 1.578 4.979 4.213s-1.821 4.204-4.979 4.204l-3.709.009zm0-6.888v5.37h3.649c2.172 0 3.35-.894 3.35-2.686s-1.178-2.684-3.35-2.684h-3.649zm17.522 3.148l-.363 1.478c-.513-.253-1.078-.382-1.65-.376a2.65 2.65 0 0 0-1.935.917 2.64 2.64 0 0 0-.62 2.049v5.323h-1.503v-9.523h1.488v1.337a3.33 3.33 0 0 1 2.818-1.529 4.08 4.08 0 0 1 1.751.321"/><use xlink:href="#R" x="679.061" y="121.277"/><path d="M791.934 260.125l-.968 1.016c-.684-.706-1.623-1.104-2.606-1.106a3.55 3.55 0 0 0 0 7.09c.988-.017 1.931-.417 2.63-1.116l.939 1.026c-.903.989-2.191 1.537-3.53 1.503a4.96 4.96 0 0 1-4.859-4.953 4.96 4.96 0 0 1 4.859-4.951c1.339-.037 2.628.512 3.53 1.503m10.873 3.409a4.72 4.72 0 0 1-.03.563h-7.634a3.24 3.24 0 0 0 3.371 3.107c1.122 0 2.2-.428 3.017-1.196l.804 1.027c-1.047 1.008-2.46 1.545-3.912 1.488a4.96 4.96 0 0 1-.09-9.904c1.261.016 2.458.554 3.307 1.486s1.272 2.175 1.168 3.431m-7.645-.654h6.11a2.99 2.99 0 0 0-2.978-2.926c-1.661-.021-3.042 1.27-3.138 2.926m16.832-2.053c-.936-.58-2.015-.89-3.117-.894-1.358 0-2.255.563-2.255 1.503 0 .795.693 1.187 1.941 1.337l1.127.141c2.022.263 3.194 1.095 3.194 2.654 0 1.809-1.629 2.947-4.195 2.947a6.69 6.69 0 0 1-3.972-1.217l.695-1.127c.942.725 2.112 1.092 3.299 1.035 1.61 0 2.63-.532 2.63-1.538 0-.764-.644-1.227-1.992-1.388l-1.127-.13c-2.144-.261-3.149-1.217-3.149-2.63 0-1.801 1.518-2.887 3.803-2.887a6.97 6.97 0 0 1 3.782 1.037l-.665 1.157h0 0zm9.92 0c-.936-.58-2.015-.89-3.117-.894-1.358 0-2.255.563-2.255 1.503 0 .795.693 1.187 1.941 1.337l1.127.141c2.022.263 3.194 1.095 3.194 2.654 0 1.809-1.629 2.947-4.195 2.947a6.69 6.69 0 0 1-3.972-1.217l.695-1.127c.942.725 2.112 1.092 3.299 1.035 1.61 0 2.63-.532 2.63-1.538 0-.764-.644-1.227-1.99-1.388l-1.137-.13c-2.144-.261-3.149-1.217-3.149-2.63 0-1.801 1.518-2.887 3.801-2.887a6.97 6.97 0 0 1 3.782 1.037l-.656 1.157h0 0zm5.347-5.4c.004.282-.109.554-.31.753s-.473.308-.755.302a1.06 1.06 0 0 1-1.016-1.061c0-.569.449-1.037 1.016-1.061a1.05 1.05 0 0 1 1.065 1.067m-.312 12.9h-1.503v-9.523h1.503v9.523zm12.186-5.901v5.894h-1.503v-5.411c.093-.764-.162-1.53-.694-2.087s-1.285-.846-2.053-.789a2.8 2.8 0 0 0-2.918 2.917v5.37h-1.503v-9.523h1.488v1.358a3.76 3.76 0 0 1 3.209-1.548c1.049-.083 2.083.286 2.842 1.014a3.68 3.68 0 0 1 1.13 2.797m10.798-2.186v-1.427h1.503v8.869c.075 1.339-.44 2.645-1.409 3.574s-2.296 1.387-3.632 1.253c-1.443.033-2.855-.417-4.013-1.277l.663-1.206c.965.727 2.141 1.119 3.35 1.116.939.096 1.873-.226 2.553-.881a3.21 3.21 0 0 0 .979-2.517v-.975a4 4 0 0 1-3.401 1.619c-1.745 0-3.358-.93-4.231-2.441a4.88 4.88 0 0 1 0-4.884c.873-1.511 2.486-2.442 4.231-2.442a4.04 4.04 0 0 1 3.401 1.617m-6.589 3.259c.061 1.841 1.593 3.289 3.434 3.249s3.306-1.557 3.286-3.398-1.521-3.323-3.363-3.323a3.31 3.31 0 0 0-2.429 1.011c-.635.657-.971 1.548-.928 2.461"/></g><path d="M15.25 259.056a6.71 6.71 0 0 1-6.702-6.7 6.71 6.71 0 0 1 6.702-6.7 6.71 6.71 0 0 1 6.702 6.7c-.013 3.695-3.006 6.686-6.702 6.7m0-12.058a5.36 5.36 0 0 0-5.36 5.359 5.36 5.36 0 1 0 10.72 0 5.29 5.29 0 0 0-1.552-3.805 5.3 5.3 0 0 0-3.808-1.548m9.881 25.787H5.362v-6.364a6.37 6.37 0 0 1 6.365-6.364h6.869a6.37 6.37 0 0 1 6.365 6.364v6.364h.169 0zm-18.429-1.172h17.257v-5.024c-.016-2.86-2.332-5.175-5.193-5.191h-6.873c-2.861.016-5.177 2.331-5.193 5.191v5.024" class="B I"/><path d="M721.557 162.755H549.501m192.83-81.565v50.58" class="D"/><g class="B"><g class="K"><path d="M736.97 127.248l5.36 5.359 5.193-5.359H736.97zM554.863 230.25l-5.36 5.191 5.36 5.359v-10.55zm0-35.005l-5.36 5.359 5.36 5.191v-10.55h0zm0-37.851l-5.36 5.359 5.36 5.359v-10.717h0zm0-37.18l-5.36 5.359 5.36 5.191v-10.55h0zm-215.24 13.732l5.36-5.359-5.36-5.184v10.543zm0 51.999l5.36-5.359-5.36-5.191v10.55h0zm0 47.084l5.36-5.359-5.36-5.191v10.55h0z"/></g><g class="F"><path d="M721.39 95.928h42.72v16.581h-42.72z"/></g></g><path d="M721.389 95.928h42.72v16.581h-42.72z" class="D H"/><path d="M736.493 102.273c-.746-.479-1.614-.74-2.501-.751-.99 0-1.691.391-1.691 1.059s.763.843 1.821 1.02l.498.083c1.574.257 2.809.939 2.809 2.468 0 1.946-1.713 2.872-3.609 2.872-1.332.028-2.636-.376-3.716-1.153l.913-1.416a4.66 4.66 0 0 0 2.809.95c.977 0 1.732-.376 1.732-1.063 0-.61-.643-.838-1.879-1.033l-.564-.088c-1.556-.246-2.689-.939-2.689-2.526 0-1.839 1.636-2.795 3.515-2.795a6.2 6.2 0 0 1 3.369.939l-.817 1.435h0zm11.348 2.184a4.45 4.45 0 0 1-.889 2.733l1.24 1.675h-2.067l-.41-.541c-.753.471-1.626.716-2.514.704-2.518-.034-4.534-2.096-4.511-4.613s2.076-4.542 4.594-4.53 4.552 2.055 4.552 4.572m-7.433 0c-.046.763.231 1.51.763 2.058s1.27.849 2.034.827c.522.007 1.035-.128 1.486-.391l-1.606-2.141h2.104l.605.819c.139-.375.209-.772.207-1.172a2.8 2.8 0 0 0-4.216-2.483 2.8 2.8 0 0 0-1.377 2.483m15.511 4.408h-6.424v-8.817h1.757v7.173h4.661l.006 1.643h0z" class="B E"/><path d="M742.757 183.695v50.58" class="D"/><g transform="translate(721.816 198.434)"><g class="B"><path d="M15.579 31.318l5.356 5.361 5.193-5.359z" class="K"/><g class="F"><path d="M0 0h42.72v16.581H0z"/></g></g><path d="M0 0h42.72v16.581H0z" class="D H"/></g><g transform="translate(393.043 169.601)" class="B"><path d="M343.875 35.178c-.747-.48-1.613-.74-2.501-.751-.99 0-1.691.391-1.691 1.057s.763.845 1.821 1.02l.498.083c1.574.259 2.809.939 2.809 2.468 0 1.946-1.712 2.872-3.607 2.872-1.331.03-2.636-.375-3.716-1.153l.913-1.416a4.66 4.66 0 0 0 2.809.95c.977 0 1.732-.376 1.732-1.063 0-.612-.643-.838-1.879-1.033l-.564-.088c-1.556-.244-2.689-.939-2.689-2.524 0-1.839 1.636-2.797 3.515-2.797a6.2 6.2 0 0 1 3.369.939l-.819 1.437h0zm11.348 2.184a4.45 4.45 0 0 1-.889 2.733l1.24 1.675h-2.067l-.41-.541c-.753.472-1.625.717-2.514.706-2.518-.034-4.534-2.096-4.511-4.613s2.076-4.542 4.594-4.53 4.552 2.055 4.552 4.572m-7.433 0c-.045.762.232 1.509.764 2.057s1.27.848 2.033.826c.522.008 1.035-.128 1.486-.391l-1.606-2.141h2.104l.605.819c.139-.374.209-.771.207-1.17a2.8 2.8 0 0 0-4.216-2.483 2.8 2.8 0 0 0-1.377 2.483m15.511 4.403h-6.418V32.95h1.757v7.173h4.661v1.643h0z" class="E"/><path d="M35.017.742h6.031v19.594h-6.031V.742zM27.814.93l-12.4 8.319a.3.3 0 0 1-.25.137c-.1 0-.195-.051-.25-.137L2.514.93C2.179.742 2.01.554 1.676.554.734.665.018 1.454 0 2.402v17.932h6.031v-8.503c0-.563.504-.924.838-.563l6.869 4.806c.678.368 1.499.368 2.178 0l7.203-4.806c.334-.376.838 0 .838.563v8.503h6.031V2.402c-.018-.948-.734-1.738-1.676-1.848a2.44 2.44 0 0 0-.502.376M71.368.742h-6.031v9.057c0 .563-.504.924-.838.563L48.584 1.119c-.334-.188-.504-.376-.838-.376-.942.111-1.658.9-1.676 1.848V20.34h6.031v-8.873c0-.563.504-.924.838-.563l15.915 9.243c.336.188.504.376.838.376.941-.113 1.655-.902 1.676-1.848V.742h0 0zm5.026 0h2.848v19.594h-2.848V.742h0 0zm19.1 19.964c-7.54 0-12.9-3.882-12.9-10.353C82.594 4.066 87.955 0 95.494 0s12.9 3.882 12.9 10.353-5.36 10.353-12.9 10.353m0-17.748c-5.529 0-9.884 2.772-9.884 7.579 0 4.991 4.355 7.579 9.884 7.579s9.884-2.772 9.884-7.579-4.355-7.579-9.884-7.579" class="K"/></g><g transform="translate(346.306 60.423)" class="D"><path stroke-width="2.5" d="M0 63.759h201.874v111.544H0z"/><path d="M375.922 178.199h-65.505v-38.018H201.521m174.4 62.805h-82.089v-28.303h-92.312m1.676-109.532h112.244V0h59.641"/></g><path d="M586.527 226.899h42.72v16.581h-42.72z" class="B F"/><path d="M586.527 226.899h42.72v16.581h-42.72z" class="D H"/><g transform="translate(569.104 190.389)"><g class="B F"><use xlink:href="#X"/></g><g class="D H"><use xlink:href="#X"/></g></g><g transform="translate(569.104 154.045)"><g class="B"><path d="M10.846 43.175c-.747-.48-1.613-.74-2.501-.751-.99 0-1.691.391-1.691 1.057s.763.843 1.821 1.02l.498.083c1.574.259 2.809.939 2.809 2.468 0 1.946-1.712 2.872-3.607 2.872-1.331.03-2.636-.375-3.716-1.153l.913-1.416a4.66 4.66 0 0 0 2.809.95c.977 0 1.732-.376 1.732-1.063 0-.612-.643-.838-1.879-1.033l-.564-.088c-1.556-.244-2.689-.939-2.689-2.524 0-1.839 1.636-2.797 3.515-2.797a6.2 6.2 0 0 1 3.369.939l-.819 1.437h0 0zm8.009.15c.016.875-.506 1.67-1.315 2.002a2.15 2.15 0 0 1 1.503 2.021c0 1.737-1.582 2.575-3.25 2.575a3.9 3.9 0 0 1-3.081-1.279l1.015-1.114a2.78 2.78 0 0 0 2.003.843c.857 0 1.544-.376 1.544-1.146s-.776-1.151-1.727-1.151h-1.026v-1.503h1.033c.857 0 1.543-.376 1.543-1.127 0-.712-.643-1.101-1.46-1.101-.702-.001-1.364.33-1.783.894l-1.071-1.076c.697-.911 1.796-1.422 2.942-1.367 1.86 0 3.124 1.007 3.124 2.532m10.867-.154c-.747-.48-1.613-.74-2.501-.751-.99 0-1.691.391-1.691 1.057s.763.843 1.821 1.02l.498.083c1.574.259 2.809.939 2.809 2.468 0 1.946-1.713 2.872-3.607 2.872-1.331.03-2.636-.375-3.716-1.153l.913-1.416a4.66 4.66 0 0 0 2.809.95c.977 0 1.732-.376 1.732-1.063 0-.612-.643-.838-1.879-1.033l-.564-.088c-1.556-.244-2.689-.939-2.689-2.524 0-1.839 1.636-2.797 3.515-2.797a6.2 6.2 0 0 1 3.369.939l-.819 1.437h0 0zm9.139 6.596h-6.589v-8.828h6.538v1.612h-4.782v1.957h4.56v1.613h-4.56v2.027h4.83l.002 1.619h0zm8.229 0h-6.414v-8.828h1.757v7.173h4.661l-.004 1.655zm7.801 0h-6.589v-8.828h6.538v1.612h-4.783v1.957h4.56v1.613h-4.56v2.027h4.83l.004 1.619zm9.745-7.006l-1.503.926a2.63 2.63 0 0 0-2.279-1.215c-1.565.039-2.813 1.319-2.813 2.883s1.248 2.844 2.813 2.883a2.7 2.7 0 0 0 2.3-1.21l1.435 1.035c-1.269 1.771-3.607 2.41-5.601 1.53a4.6 4.6 0 0 1-2.643-5.168c.455-2.131 2.342-3.652 4.522-3.642 1.522-.059 2.96.694 3.778 1.978m8.077-.169h-2.732v7.175h-1.759v-7.175h-2.734v-1.653h7.226l-.002 1.653h0z" class="E"/><g class="F"><use xlink:href="#X"/></g></g><use xlink:href="#X" class="D H"/></g><g transform="translate(573.563 158.52)" class="B E"><path d="M6.388 2.394a4.75 4.75 0 0 0-2.501-.751c-.99 0-1.691.391-1.691 1.059s.763.843 1.821 1.02l.498.083c1.574.257 2.809.939 2.809 2.468 0 1.946-1.712 2.872-3.607 2.872C2.384 9.173 1.08 8.769 0 7.991l.913-1.416a4.66 4.66 0 0 0 2.809.95c.977 0 1.732-.376 1.732-1.065 0-.61-.643-.838-1.879-1.033l-.564-.088C1.456 5.093.323 4.4.323 2.813.323.974 1.96.016 3.838.016a6.2 6.2 0 0 1 3.369.939l-.819 1.439h0 0zm8.01.15a2.13 2.13 0 0 1-1.315 2.002c.885.278 1.492 1.093 1.503 2.021 0 1.739-1.582 2.575-3.25 2.575a3.9 3.9 0 0 1-3.081-1.279L9.269 6.75a2.78 2.78 0 0 0 2.003.843c.857 0 1.544-.376 1.544-1.146s-.776-1.151-1.727-1.151h-1.026V3.793h1.033c.857 0 1.543-.376 1.543-1.127 0-.712-.643-1.101-1.46-1.101-.702-.001-1.364.33-1.783.894L8.325 1.384A3.49 3.49 0 0 1 11.268.016c1.86 0 3.124 1.009 3.124 2.532m10.867-.154a4.75 4.75 0 0 0-2.501-.751c-.99 0-1.691.391-1.691 1.059s.763.843 1.821 1.02l.498.083c1.574.257 2.809.939 2.809 2.468 0 1.946-1.713 2.872-3.607 2.872-1.331.028-2.635-.376-3.716-1.153l.913-1.416a4.66 4.66 0 0 0 2.809.95c.977 0 1.732-.376 1.732-1.065 0-.61-.643-.838-1.879-1.033l-.564-.088c-1.556-.246-2.689-.939-2.689-2.526 0-1.839 1.636-2.797 3.515-2.797a6.2 6.2 0 0 1 3.369.939l-.819 1.439h0 0zm9.139 6.593h-6.589V.17h6.538v1.612h-4.782v1.952h4.56v1.612h-4.56v2.027h4.83l.002 1.615h0zm8.229 0h-6.414V.17h1.757v7.173h4.661l-.004 1.643zm7.801 0h-6.589V.17h6.538v1.612h-4.783v1.952h4.56v1.612h-4.56v2.027h4.83l.004 1.615z"/><use xlink:href="#Y"/><path d="M68.259 1.816h-2.732v7.173h-1.759V1.816h-2.734V.172h7.226z"/></g><g transform="translate(569.104 117.199)"><g class="B F"><use xlink:href="#X"/></g><g class="D H"><use xlink:href="#X"/></g></g><g transform="translate(573.563 121.681)" class="B E"><path d="M6.388 2.392a4.75 4.75 0 0 0-2.501-.751c-.99 0-1.691.391-1.691 1.059s.763.843 1.821 1.02l.498.083c1.574.257 2.809.939 2.809 2.468 0 1.946-1.712 2.872-3.607 2.872A6.14 6.14 0 0 1 0 7.99l.913-1.416a4.66 4.66 0 0 0 2.809.95c.977 0 1.732-.376 1.732-1.063 0-.61-.643-.838-1.879-1.033l-.564-.088C1.456 5.093.323 4.4.323 2.813.323.974 1.96.016 3.838.016a6.2 6.2 0 0 1 3.369.939l-.819 1.437h0 0zm8.01.15a2.13 2.13 0 0 1-1.315 2.002c.885.278 1.492 1.093 1.503 2.021 0 1.739-1.582 2.575-3.25 2.575a3.9 3.9 0 0 1-3.081-1.279L9.27 6.747a2.78 2.78 0 0 0 2.003.843c.857 0 1.544-.376 1.544-1.146s-.776-1.151-1.727-1.151h-1.026V3.791h1.033c.857 0 1.543-.376 1.543-1.127 0-.712-.643-1.101-1.46-1.101-.702-.001-1.364.33-1.783.894L8.325 1.382A3.49 3.49 0 0 1 11.268.014c1.86 0 3.124 1.009 3.124 2.532m10.867-.154a4.75 4.75 0 0 0-2.501-.751c-.99 0-1.691.391-1.691 1.059s.763.843 1.821 1.02l.498.083c1.574.257 2.809.939 2.809 2.468 0 1.946-1.713 2.872-3.607 2.872-1.331.028-2.635-.376-3.716-1.153l.913-1.416a4.66 4.66 0 0 0 2.809.95c.977 0 1.732-.376 1.732-1.063 0-.61-.643-.838-1.879-1.033l-.564-.088c-1.556-.246-2.689-.939-2.689-2.526 0-1.839 1.636-2.797 3.515-2.797a6.2 6.2 0 0 1 3.369.939l-.819 1.437h0 0zm9.139 6.595h-6.589V.17h6.538v1.612h-4.782v1.952h4.56v1.613h-4.56v2.027h4.83l.002 1.613h0zm8.229 0h-6.414V.17h1.757v7.166h4.661l-.004 1.651zm7.801 0h-6.589V.17h6.538v1.612h-4.783v1.952h4.56v1.613h-4.56v2.027h4.83l.004 1.613z"/><use xlink:href="#Y"/><path d="M68.259 1.812h-2.732v7.173h-1.759V1.812h-2.734V.169h7.226l-.002 1.643zM32.24 111.607c-.747-.48-1.613-.74-2.501-.751-.99 0-1.691.391-1.691 1.057s.763.843 1.821 1.02l.498.083c1.574.259 2.809.939 2.809 2.468 0 1.946-1.712 2.872-3.607 2.872-1.331.03-2.636-.375-3.716-1.153l.913-1.416a4.66 4.66 0 0 0 2.809.95c.977 0 1.732-.376 1.732-1.063 0-.612-.643-.838-1.879-1.033l-.564-.088c-1.556-.244-2.689-.939-2.689-2.524 0-1.839 1.636-2.795 3.515-2.795a6.2 6.2 0 0 1 3.369.939l-.819 1.435h0 0zm8.009.152c.016.875-.506 1.67-1.315 2.002a2.15 2.15 0 0 1 1.503 2.021c0 1.739-1.582 2.575-3.25 2.575a3.9 3.9 0 0 1-3.081-1.279l1.015-1.114a2.78 2.78 0 0 0 2.003.843c.857 0 1.544-.376 1.544-1.146s-.776-1.151-1.727-1.151h-1.026v-1.503h1.033c.857 0 1.543-.376 1.543-1.127 0-.712-.643-1.101-1.46-1.101-.702-.001-1.364.33-1.783.894l-1.071-1.076c.696-.91 1.795-1.421 2.94-1.367 1.86 0 3.124 1.007 3.124 2.532"/></g><path d="M4.357 110.834h25.298v7.201H4.357z" class="B J"/><g transform="translate(3.352 109.823)" class="B I"><path d="M27.474 27.471H0V0h27.307v27.466l.167.006zM2.178 25.464h23.288V2.183H2.178v23.281z"/><path d="M1.005 8.045h25.298v2.01H1.005v-2.01zm3.183 5.695h3.686v2.344H4.188v-2.344zm16.753 205.166l-1.503-1.503 4.859-4.857-4.859-4.857 1.503-1.675 6.534 6.533-6.534 6.36z"/><path d="M9.214 211.368h16.753v2.177H9.214z"/></g><g transform="translate(0 176.503)" class="B J"><path d="M6.365 157.082L0 150.55l6.365-6.364 1.676 1.503-5.026 4.857 5.026 5.024z"/><path d="M1.509 149.545h16.753v2.177H1.509v-2.177zM18.262 29.46c-.897.028-1.795-.028-2.681-.167l.334-2.177a16.2 16.2 0 0 0 4.021.167l.334 2.177h-2.008 0 0zm4.355-.669l-.671-2.01c1.26-.352 2.451-.919 3.519-1.675l1.34 1.843a13.34 13.34 0 0 1-4.188 1.843m-9.383-.167a19.9 19.9 0 0 1-4.188-2.177l1.34-1.675a8.87 8.87 0 0 0 3.519 1.843l-.671 2.01h0 0zm15.247-3.349l-1.503-1.503c.977-.901 1.773-1.981 2.345-3.182l2.01 1.005c-.702 1.401-1.669 2.652-2.848 3.685m-21.11-.503a19.87 19.87 0 0 1-2.681-3.852l2.01-.838a14.37 14.37 0 0 0 2.178 3.349l-1.507 1.341h0 0zm24.962-5.359l-2.01-.671c.386-1.308.611-2.657.671-4.019v-.838l2.178-.167v1.005c-.101 1.592-.382 3.167-.838 4.696m-28.314-.671c-.332-1.314-.501-2.664-.504-4.019v-.671l2.178.167v.503c-.009 1.136.161 2.266.504 3.349l-2.178.671h0 0zm1.843-6.533l-2.178-.503c.308-1.536.874-3.008 1.676-4.354l1.843 1.172c-.573 1.179-1.022 2.414-1.34 3.685m24.627-.334c-.326-1.293-.832-2.533-1.503-3.685l1.843-1.172c.783 1.373 1.403 2.834 1.843 4.354l-2.183.503h0zM8.549 6.863L6.873 5.524a15.93 15.93 0 0 1 3.519-3.182l1.172 1.843c-1.191.659-2.221 1.574-3.015 2.68m19.267-.334A10.97 10.97 0 0 0 24.8 4.018l1.172-1.843c1.32.82 2.507 1.836 3.519 3.015l-1.676 1.341h0 0zM13.24 3.182l-.838-2.01A15.04 15.04 0 0 1 16.926 0l.167 2.177a14.49 14.49 0 0 0-3.853 1.005m9.717-.167a9.94 9.94 0 0 0-3.853-.838L19.271 0a19.75 19.75 0 0 1 4.524 1.005l-.838 2.01h0 0z"/></g><path d="M18.262 186.201c2.775 0 5.026 2.25 5.026 5.024s-2.251 5.024-5.026 5.024-5.026-2.25-5.026-5.024 2.251-5.024 5.026-5.024" class="B I"/><path d="M238.229 180.339h109.397" class="D"/><use xlink:href="#Z" class="B F"/><g transform="translate(238.705 158.42)" class="D"><path d="M33.665 0h39.329v39.318H33.665V0z" class="G"/><path d="M0 69.155h109.397"/></g><use xlink:href="#Z" y="51.229" class="B F"/><path d="M272.369 209.649h39.329v39.318h-39.329v-39.318z" class="D G"/><g transform="translate(283.234 168.517)" class="B"><path d="M16.656 7.56a1.04 1.04 0 0 1 .969.967v9.093a1.04 1.04 0 0 1-.969.967H.968c-.52-.032-.935-.447-.968-.967V.967C.032.447.447.032.968 0h1.937c.52.032.935.447.968.967v5.808c.028.417.359.748.776.776h1.355c.417-.028.748-.359.776-.776V.967c.032-.52.447-.935.968-.967h1.937c.52.032.935.447.968.967v5.616a1.29 1.29 0 0 0 .776.967l5.229.009h0 0zm-2.518 6.198v-1.743c-.032-.52-.447-.935-.968-.967h-1.937c-.521.031-.937.446-.969.967v1.743c.032.521.448.936.969.967h1.937a.91.91 0 0 0 .701-.267.92.92 0 0 0 .267-.701" fill="#f60"/><path d="M14.613 54.794h0a1.11 1.11 0 0 0-.834-.667c-.395-.11-.818-.049-1.167.167-.398.177-.658.566-.669 1.001-.111.396-.05.82.167 1.168a1.11 1.11 0 0 0 .834.665c.395.111.819.051 1.169-.165.397-.177.656-.567.667-1.001.111-.396.05-.82-.167-1.168m-8.507 1.168c.877.147 1.691.552 2.335 1.166l.334.334 1.503-.836a3.38 3.38 0 0 1 0-1.833c.182-.856.733-1.589 1.503-2.002a3.23 3.23 0 0 1 2.503-.332 3.59 3.59 0 0 1 2.001 1.503c.436.759.554 1.657.334 2.502-.182.855-.733 1.587-1.503 2l-.167.165c-.682.304-1.449.363-2.17.167-.611-.129-1.148-.488-1.503-1.001l-1.503.834a3.56 3.56 0 0 1 0 3.005l1.503.834c.417-.445.931-.788 1.503-1.001.846-.222 1.745-.102 2.503.334a3.59 3.59 0 0 1 1.503 2c.222.845.102 1.744-.334 2.502a3.59 3.59 0 0 1-2.001 1.503c-.846.22-1.744.1-2.503-.334-.77-.413-1.321-1.146-1.503-2-.167-.6-.167-1.235 0-1.835l-1.503-.834-.334.334a3.92 3.92 0 0 1-2.335 1.166v1.835c.601.175 1.167.458 1.668.834.639.609 1 1.452 1 2.335s-.361 1.726-1 2.335c-.594.659-1.449 1.026-2.335 1.001-1.349.01-2.569-.8-3.082-2.047s-.218-2.681.747-3.623c.415-.5 1.02-.802 1.668-.834v-1.835c-.877-.147-1.691-.552-2.335-1.166a4.02 4.02 0 0 1-1.169-3.005 4.8 4.8 0 0 1 1.169-3.005 3.92 3.92 0 0 1 2.335-1.166v-1.835c-.602-.176-1.167-.459-1.668-.836-.968-.949-1.266-2.389-.753-3.644a3.34 3.34 0 0 1 6.178 0c.513 1.255.214 2.695-.753 3.644a2.32 2.32 0 0 1-1.668.836v1.835l-.165.002h0 0zm1.001 2.667a2.49 2.49 0 0 0-1.503-.665c-.584-.068-1.159.188-1.503.665a2.5 2.5 0 0 0-.669 1.503c-.066.584.19 1.159.669 1.503a2.48 2.48 0 0 0 1.503.667c.57-.011 1.112-.252 1.503-.667.359-.428.59-.949.667-1.503-.151-.53-.376-1.035-.667-1.503m6.674 7.675a1.67 1.67 0 0 0 .834-.669 2.48 2.48 0 0 0 .167-1.168c-.162-.369-.388-.708-.667-.999a2.46 2.46 0 0 0-1.169-.167 1.67 1.67 0 0 0-.834.669c-.218.347-.278.772-.167 1.166.163.37.39.709.669 1.001a1.37 1.37 0 0 0 1.167.167m-8.34 4.669c.404.051.8-.147 1.001-.501.294-.253.474-.614.5-1.001.013-.443-.171-.87-.5-1.166-.253-.294-.614-.474-1.001-.5-.396-.012-.772.176-1.001.5-.329.297-.513.723-.5 1.166-.049.404.147.798.5 1.001a1.44 1.44 0 0 0 1.001.501M6.608 49.96a1.44 1.44 0 0 0-1.001-.5c-.396-.012-.772.176-1.001.5a1.5 1.5 0 0 0-.5 1.166c.019.437.197.852.5 1.168.252.295.614.475 1.001.5a1 1 0 0 0 1.001-.5 1.5 1.5 0 0 0 .5-1.168 3.94 3.94 0 0 0-.5-1.166" class="E"/></g><path d="M238.229 124.064h109.397m-109.397 9.215h109.397" stroke="#e8c4c5" class="G"/><path d="M238.229 128.339h109.397" class="D"/><use xlink:href="#Z" y="-51.23" class="B F"/><path d="M272.369 107.19h39.329v39.318h-39.329V107.19z" class="D G"/></g></g><g transform="translate(312.573 141.011)"><mask id="g" class="C"><use xlink:href="#B"/></mask><g mask="url(#g)" fill="#2a59a2" class="B"><path d="M-.438.005h24.13v19.811H-.438z"/></g></g><g transform="translate(312.573 139.835)"><mask id="h" class="C"><use xlink:href="#C"/></mask><g mask="url(#h)" fill="url(#D)" class="B"><path d="M-.428-.009h13.354v11.908H-.428z"/></g></g><g transform="translate(312.573 151.586)"><mask id="i" class="C"><use xlink:href="#E"/></mask><g mask="url(#i)" fill="url(#F)" class="B"><path d="M0 .002h14.106v9.261H0z"/></g></g><g transform="translate(323.149 149.236)"><mask id="j" class="C"><use xlink:href="#G"/></mask><g mask="url(#j)" fill="url(#H)" class="B"><path d="M0-.006h2.35v2.35H0z"/></g></g><g transform="translate(320.799 144.536)"><mask id="k" class="C"><use xlink:href="#I"/></mask><g mask="url(#k)" fill="url(#J)" class="B"><path d="M0 0h9.403v4.7H0z"/></g></g><g transform="translate(325.499 149.236)"><mask id="l" class="C"><use xlink:href="#K"/></mask><g mask="url(#l)" fill="url(#L)" class="B"><path d="M0 0h7.051v7.051H0z"/></g></g><g transform="translate(325.499 145.711)"><mask id="m" class="C"><use xlink:href="#M"/></mask><g mask="url(#m)" fill="url(#N)" class="B"><path d="M0 .006h10.773v5.875H0z"/></g></g><g transform="translate(312.573 146.886)"><mask id="n" class="C"><use xlink:href="#O"/></mask><g mask="url(#n)" fill="url(#P)" class="B"><path d="M-.006-.002h11.749v11.858H-.006z"/></g></g><mask id="o" class="C"><use xlink:href="#V" href="#A"/></mask><g mask="url(#o)" class="B C"><path d="M332.169 146.765a.54.54 0 1 1 0 1.082.54.54 0 0 1-.541-.541c0-.144.057-.281.158-.383a.54.54 0 0 1 .383-.158"/></g></g></svg>